<?xml version="1.0" standalone="no"?>
<!DOCTYPE svg PUBLIC "-//W3C//DTD SVG 20010904//EN"
 "http://www.w3.org/TR/2001/REC-SVG-20010904/DTD/svg10.dtd">
<svg version="1.0" xmlns="http://www.w3.org/2000/svg"
 width="640.000000pt" height="640.000000pt" viewBox="0 0 640.000000 640.000000"
 preserveAspectRatio="xMidYMid meet">
<metadata>
Created by potrace 1.14, written by Peter Selinger 2001-2017
</metadata>
<g transform="translate(0.000000,640.000000) scale(0.100000,-0.100000)"
fill="#000000" stroke="none">
<path d="M0 4485 c0 -1778 1 -1914 17 -1908 11 4 14 3 9 -5 -4 -7 -2 -12 3
-12 6 0 11 5 11 10 0 6 27 10 61 10 37 0 58 -4 54 -10 -3 -5 -21 -10 -38 -10
l-32 0 -2 -72 c-2 -40 -7 -76 -13 -82 -5 -5 -11 -8 -12 -5 -2 2 -10 17 -18 33
-35 69 -39 48 -39 -253 -1 -256 1 -291 14 -291 13 0 14 4 5 20 -11 21 -4 25
18 12 14 -9 7 -37 -15 -64 -13 -14 -12 -17 6 -23 28 -9 26 -23 -4 -37 -22 -10
-23 -12 -9 -23 14 -10 14 -12 0 -24 -17 -14 -23 -66 -6 -56 15 9 30 -4 24 -20
-3 -8 -12 -15 -20 -17 -10 -2 -11 -7 -4 -18 9 -13 12 -12 25 4 8 11 18 17 21
13 11 -10 -17 -37 -38 -37 -16 0 -19 -6 -16 -38 2 -30 7 -38 27 -40 19 -3 21
-6 10 -13 -10 -7 -8 -9 11 -7 29 3 36 -15 21 -55 -10 -25 -11 -26 -38 -12
l-28 15 -3 -50 c-3 -56 15 -86 48 -77 27 7 36 -10 16 -32 -20 -22 -20 -31 -1
-31 18 0 18 -1 5 -34 -5 -14 -8 -26 -6 -26 3 0 12 -3 21 -6 13 -5 16 -2 13 17
-2 19 2 25 20 27 21 3 26 12 23 38 -2 14 27 26 41 18 7 -5 5 -12 -7 -20 -10
-7 -15 -20 -12 -29 4 -9 1 -15 -8 -15 -22 0 -18 -38 5 -45 26 -8 26 -25 1 -25
-11 0 -23 9 -26 21 -5 14 -10 17 -18 11 -7 -5 -27 -13 -45 -17 -29 -6 -34 -4
-39 14 -6 25 -18 27 -27 5 -7 -19 10 -44 31 -44 8 0 11 -5 8 -10 -4 -6 -15 -8
-26 -5 -11 4 -19 2 -19 -4 0 -6 9 -11 19 -11 11 0 22 -4 25 -9 3 -4 19 -11 36
-14 36 -8 39 -24 5 -33 -13 -3 -29 -12 -36 -20 -9 -11 -7 -14 9 -14 12 0 24
-5 28 -11 3 -6 17 -8 31 -4 20 5 24 2 21 -12 -2 -11 -12 -18 -25 -18 -30 0
-41 -15 -12 -16 49 -2 54 -4 57 -22 3 -16 -1 -17 -35 -11 -34 6 -37 5 -25 -9
7 -9 27 -19 43 -22 30 -7 38 -20 16 -28 -6 -3 -2 -6 10 -6 13 -1 27 8 33 19 8
14 21 20 45 20 31 0 34 3 31 22 -2 18 -10 23 -32 23 -22 0 -29 4 -27 19 1 12
-2 15 -9 8 -8 -8 -15 -6 -26 5 -14 14 -14 17 1 28 10 7 17 17 16 21 -1 5 -1
17 0 27 1 21 31 23 31 2 0 -8 -4 -15 -10 -15 -22 0 -8 -18 23 -31 17 -7 35
-18 39 -23 4 -6 13 -11 20 -12 24 -2 73 -17 85 -26 7 -5 17 -7 23 -3 6 4 22
-5 34 -18 20 -21 21 -26 7 -26 -56 -3 -75 -8 -78 -21 -4 -13 -3 -13 6 0 5 8
13 11 17 7 17 -17 -14 -30 -46 -19 -22 8 -38 8 -58 0 -15 -6 -33 -12 -41 -12
-8 -1 -16 -6 -18 -12 -3 -8 11 -9 44 -3 45 7 109 -5 123 -22 3 -4 16 -9 30
-10 23 -4 25 -8 25 -59 0 -30 -4 -58 -9 -61 -5 -4 3 -15 18 -24 33 -22 33 -35
2 -35 -33 0 -57 10 -50 21 3 5 -1 9 -9 9 -18 0 -55 42 -42 47 6 2 9 20 7 41
-4 35 -3 36 11 17 13 -16 18 -18 29 -7 11 11 10 14 -2 22 -8 5 -21 10 -27 10
-17 0 -45 -44 -43 -67 4 -31 1 -34 -20 -23 -13 7 -17 16 -13 28 5 13 1 12 -19
-5 -25 -24 -58 -31 -58 -12 0 5 5 7 10 4 6 -3 15 -3 20 0 16 10 -8 45 -30 45
-10 0 -22 5 -25 10 -3 6 -15 10 -26 10 -15 0 -18 -5 -13 -24 3 -13 1 -27 -5
-30 -19 -12 -12 -23 12 -19 21 4 22 1 22 -54 l0 -58 39 0 c34 0 41 4 55 32 18
37 36 44 27 11 -3 -13 -6 -29 -6 -35 0 -7 -6 -13 -14 -13 -18 0 -29 -29 -16
-45 14 -17 1 -26 -26 -19 -13 4 -32 3 -41 -1 -14 -6 -10 -11 22 -22 l40 -13
-42 4 c-31 3 -43 0 -43 -9 0 -21 19 -28 36 -14 10 8 18 9 25 2 8 -8 8 -13 0
-17 -5 -4 -8 -12 -5 -19 3 -9 -5 -12 -23 -11 -16 1 -27 7 -26 13 2 6 -8 11
-22 11 -14 0 -25 6 -25 13 0 7 -20 18 -45 25 -49 13 -56 25 -25 42 23 12 27
30 6 30 -18 0 -27 35 -12 50 8 8 4 17 -17 36 -15 13 -34 24 -40 24 -18 0 -19
-77 -1 -112 8 -15 13 -41 12 -56 -2 -18 2 -27 12 -27 33 -1 55 -23 55 -57 0
-38 -14 -53 -29 -32 -9 11 -15 11 -36 1 -23 -11 -25 -19 -28 -89 -2 -61 0 -77
13 -81 12 -5 15 2 15 33 0 38 1 39 31 35 41 -5 46 -11 26 -33 -15 -17 -15 -19
1 -35 15 -16 15 -19 2 -27 -10 -7 -2 -8 25 -5 21 3 42 11 47 18 6 9 10 9 19 0
10 -10 9 -14 -4 -19 -23 -8 -21 -31 2 -44 22 -11 71 2 71 20 0 14 36 12 48 -3
13 -15 66 -22 57 -7 -3 6 1 10 10 10 8 0 20 -11 25 -26 6 -14 23 -29 40 -35
25 -9 28 -13 18 -29 -10 -15 -16 -16 -37 -7 -14 6 -34 20 -44 31 -14 15 -29
20 -58 18 -38 -2 -63 -3 -122 -2 -15 0 -30 6 -33 15 -4 8 -12 15 -19 15 -7 0
-15 7 -19 15 -3 8 -10 15 -16 15 -5 0 -10 -7 -10 -15 0 -8 5 -15 11 -15 6 0 1
-11 -12 -25 -13 -13 -32 -25 -41 -25 -32 0 -19 -18 24 -32 50 -17 59 -34 25
-47 -14 -6 -28 -15 -33 -22 -4 -7 -3 -10 4 -5 6 3 22 1 37 -6 22 -10 28 -9 36
3 6 10 9 10 9 2 0 -8 13 -13 30 -13 25 0 30 4 30 25 0 14 7 28 15 32 24 9 30
-5 11 -26 -10 -10 -13 -22 -8 -25 17 -10 197 -3 205 8 6 8 10 7 14 -1 6 -15
133 -18 133 -4 0 6 9 9 20 8 11 -1 20 -5 20 -9 0 -4 62 -8 138 -8 l137 1 50
44 c28 25 58 48 68 51 21 7 22 20 1 32 -12 7 -4 13 37 30 28 12 57 22 63 22
21 0 127 48 150 67 13 11 29 22 37 25 9 3 9 6 -4 11 -9 3 -17 2 -17 -3 0 -6
-5 -10 -11 -10 -5 0 -7 5 -4 10 3 6 -3 10 -14 10 -15 0 -21 6 -21 23 1 25 22
57 39 57 6 0 11 7 11 15 0 8 7 15 15 15 8 0 15 -9 15 -19 0 -24 26 -35 34 -14
4 9 14 13 26 10 11 -3 26 1 33 8 9 9 19 10 30 3 11 -6 17 -5 17 2 0 14 -30 45
-50 53 -10 4 -7 6 8 6 15 1 22 7 22 20 0 11 3 26 6 35 4 11 1 16 -10 16 -21 0
-21 16 0 24 19 7 37 -2 29 -15 -4 -5 -2 -9 4 -9 15 0 33 39 28 60 -4 14 1 20
22 22 20 2 25 8 23 24 -2 13 4 24 14 28 13 5 15 2 10 -18 -3 -14 -1 -28 5 -32
8 -5 8 -8 0 -13 -16 -10 9 -61 30 -61 9 0 24 -11 33 -25 11 -17 25 -25 44 -25
l27 1 -25 22 c-14 12 -34 32 -44 45 -19 22 -19 22 2 22 12 0 22 -6 22 -13 0
-19 47 -60 59 -52 6 3 11 1 11 -4 0 -21 59 -12 70 10 7 11 9 23 6 26 -9 10 15
33 27 26 6 -4 8 0 4 10 -3 10 -2 17 4 17 5 0 12 7 16 15 9 24 63 75 79 75 8 0
17 13 21 30 3 17 10 30 16 30 5 0 36 27 69 61 59 60 60 60 85 44 18 -12 24
-23 21 -40 -3 -13 1 -34 8 -46 7 -13 13 -19 14 -13 0 7 10 14 21 17 16 4 20
11 16 26 -3 11 0 22 7 25 6 2 3 5 -6 5 -10 1 -18 8 -18 17 0 12 7 15 25 12 13
-3 22 -1 19 3 -3 5 -2 14 2 20 4 8 8 8 13 0 4 -6 17 3 33 23 25 31 25 32 5 32
-12 -1 -22 5 -23 12 -1 6 -2 16 -3 22 0 5 -8 7 -16 4 -11 -5 -15 1 -15 19 0
14 -4 29 -10 32 -5 3 -9 16 -8 28 0 12 -3 30 -7 40 -6 14 -2 20 15 24 14 4 18
8 10 13 -15 9 -21 101 -8 118 7 8 7 12 0 12 -12 0 -11 64 0 76 4 3 1 19 -7 34
-8 15 -10 31 -5 36 20 21 10 188 -13 229 -7 11 -12 25 -13 30 0 6 -12 34 -27
64 -15 30 -27 61 -27 68 0 8 -6 16 -14 19 -8 3 -12 12 -9 20 3 8 0 14 -6 14
-6 0 -11 8 -11 18 0 24 -40 203 -51 224 -5 11 -4 18 4 22 9 3 9 7 -1 14 -7 5
-10 16 -6 25 4 12 1 17 -10 17 -19 0 -21 11 -4 28 21 21 26 205 7 228 -7 8 -6
14 1 19 7 4 8 11 1 18 -5 7 -8 42 -7 80 2 46 -2 71 -11 78 -10 9 -10 16 4 40
16 26 16 30 -3 68 -10 23 -23 41 -27 41 -4 0 -3 10 4 21 6 12 11 37 11 55 0
27 4 34 19 34 23 0 24 9 4 46 -19 37 -19 51 2 63 12 6 14 13 7 23 -6 7 -9 24
-7 38 1 14 3 37 4 53 2 21 6 26 20 22 13 -4 18 0 21 17 2 13 9 22 16 21 7 -2
12 9 12 28 0 51 50 129 82 129 10 0 18 4 18 9 0 5 9 11 20 14 11 3 20 1 20 -5
0 -5 4 -6 10 -3 5 3 10 17 10 29 0 19 5 23 28 22 15 -1 33 -5 40 -10 7 -4 18
-3 25 2 7 5 30 13 52 17 22 4 44 10 50 13 5 3 40 7 77 8 37 1 82 10 100 18 17
9 63 19 102 22 58 5 75 11 95 32 32 32 35 74 6 70 -14 -2 -20 3 -20 17 0 15
-11 24 -42 33 -24 8 -43 19 -43 26 0 6 -19 20 -41 31 -71 34 -79 39 -79 52 0
18 -29 16 -36 -1 -9 -24 -54 3 -61 36 -3 16 -10 31 -15 34 -5 3 -1 12 9 20 13
10 15 16 6 22 -26 17 5 35 58 34 32 0 57 4 61 11 6 9 10 9 16 1 4 -6 16 -9 27
-7 11 2 38 6 61 7 23 2 46 6 52 10 6 3 13 2 17 -4 10 -17 65 18 65 41 0 16 4
19 18 13 9 -4 27 -7 40 -7 16 1 22 -3 18 -13 -9 -23 15 -27 30 -5 9 12 20 19
25 16 15 -10 11 -23 -8 -28 -17 -4 -17 -5 0 -6 9 0 17 -5 17 -11 0 -5 6 -10
13 -10 7 0 23 -13 35 -30 13 -16 31 -30 42 -30 16 0 20 -7 20 -30 0 -19 5 -30
14 -30 8 0 18 -9 21 -20 8 -26 29 -26 22 0 -5 18 0 20 44 20 39 0 47 -3 43
-15 -5 -11 1 -15 20 -15 15 0 26 -6 26 -14 0 -7 10 -17 23 -21 34 -11 37 -12
40 -15 1 -2 19 -4 40 -5 42 -2 58 -12 38 -24 -19 -12 4 -24 29 -16 12 4 26 -1
39 -14 12 -12 32 -21 46 -21 16 0 28 -7 31 -17 6 -18 21 -52 39 -85 5 -10 13
-18 17 -18 3 0 20 -11 36 -25 18 -15 37 -23 46 -19 9 3 22 2 29 -4 6 -5 55
-13 107 -17 52 -4 100 -11 105 -15 6 -5 39 -11 73 -14 34 -2 66 -7 71 -10 5
-4 13 -2 16 4 4 6 16 8 26 5 11 -4 26 -1 34 5 11 9 15 9 15 1 0 -16 16 -14 34
5 14 13 21 14 53 3 21 -7 45 -19 54 -27 14 -11 18 -11 22 0 3 10 9 9 23 -4 11
-10 35 -18 54 -19 56 -3 70 -9 82 -37 6 -15 11 -30 10 -34 -1 -5 2 -8 8 -8 14
0 38 -59 46 -112 3 -27 10 -48 14 -48 12 0 19 -54 8 -67 -7 -8 -5 -19 6 -35
21 -29 20 -67 0 -90 -15 -16 -15 -18 -1 -23 12 -5 14 -23 11 -101 -2 -52 -6
-99 -10 -105 -3 -5 -1 -15 4 -22 7 -8 7 -35 2 -77 -5 -36 -12 -83 -15 -105 -6
-47 -16 -151 -19 -215 -4 -59 -25 -158 -41 -190 -7 -14 -15 -45 -19 -69 -7
-47 -19 -77 -67 -175 -16 -32 -29 -66 -29 -75 0 -9 -10 -32 -22 -51 -47 -75
-50 -84 -55 -220 -5 -135 -6 -246 -3 -308 2 -24 7 -32 21 -32 12 0 16 -5 13
-14 -8 -20 26 -68 42 -62 8 3 18 -4 24 -14 9 -16 8 -20 -5 -20 -8 0 -15 -4
-15 -10 0 -5 7 -10 15 -10 8 0 15 -9 15 -21 0 -26 60 -99 81 -99 9 0 19 -9 22
-20 3 -11 9 -20 14 -19 27 5 42 -4 48 -29 3 -15 16 -32 28 -37 15 -7 23 -20
25 -42 2 -22 10 -34 24 -38 14 -5 18 -13 14 -28 -7 -26 10 -47 38 -47 17 0 18
-2 6 -10 -13 -9 -13 -11 1 -20 8 -5 21 -27 29 -50 7 -22 17 -40 21 -40 4 0 16
-16 25 -35 9 -19 19 -35 23 -35 3 0 28 -20 56 -44 27 -25 54 -42 59 -39 5 3 6
1 3 -4 -4 -6 2 -18 13 -28 11 -10 20 -15 20 -10 0 4 11 0 25 -9 57 -37 194
-105 247 -121 37 -12 58 -25 61 -37 3 -10 14 -18 27 -18 11 0 38 -11 58 -25
l37 -25 3 25 c2 14 10 25 18 25 8 0 14 7 14 15 0 18 14 19 42 4 19 -10 20 -9
13 7 -5 11 -10 42 -10 71 -1 29 -9 63 -19 78 -21 32 -14 45 25 45 27 0 29 -2
24 -29 -3 -18 0 -33 10 -41 8 -7 15 -9 15 -4 0 5 4 3 9 -5 6 -9 11 -1 16 29 4
25 3 45 -3 49 -5 3 -12 16 -16 29 -6 18 -3 22 12 22 11 0 22 -5 24 -11 2 -6
15 -12 28 -13 20 -1 25 -6 25 -26 0 -14 -8 -31 -18 -38 -21 -16 -12 -36 13
-29 10 2 24 1 31 -4 11 -7 10 -9 -5 -9 -12 0 -16 -5 -13 -14 4 -9 -3 -18 -17
-23 l-23 -8 33 -33 32 -33 7 29 c3 18 14 32 26 35 14 4 19 14 19 36 0 17 -4
31 -9 31 -5 0 -16 16 -25 35 -9 19 -22 35 -29 35 -19 1 25 30 45 30 10 0 18 4
18 9 0 19 -42 81 -51 76 -4 -3 -24 -7 -42 -8 -29 -3 -34 0 -33 17 2 21 27 24
34 6 2 -5 23 -7 48 -3 41 5 44 4 45 -18 1 -13 1 -30 0 -36 -4 -28 17 -11 23
18 3 17 10 28 16 24 5 -3 10 -2 10 3 0 6 -7 12 -15 16 -30 11 -14 25 32 28 43
3 48 5 47 28 0 21 -4 25 -28 23 -21 -1 -26 2 -22 12 3 10 -1 15 -12 15 -13 0
-14 2 -4 8 7 5 10 15 7 24 -3 8 1 21 10 28 21 17 19 25 -10 38 -35 16 -37 15
-25 -7 16 -31 12 -51 -10 -51 -14 0 -20 -7 -20 -22 0 -13 -4 -29 -9 -36 -10
-17 -53 -12 -59 7 -3 9 1 11 15 7 12 -4 25 -1 32 8 15 17 7 36 -15 36 -18 0
-18 17 0 27 15 8 16 11 16 38 0 8 6 15 14 15 8 0 16 7 20 15 6 17 -21 48 -35
40 -5 -4 -9 1 -9 9 0 8 7 16 15 18 13 3 13 6 1 31 -13 23 -13 27 0 27 15 0 17
12 8 48 -6 19 -11 22 -35 17 -16 -4 -33 -3 -39 0 -16 10 20 34 51 35 30 0 44
21 26 39 -8 8 -15 7 -28 -5 -20 -18 -79 -30 -79 -16 0 6 7 12 15 16 8 3 15 13
15 22 0 9 14 29 31 45 26 24 29 32 19 44 -14 16 -36 20 -42 6 -1 -4 -12 -5
-23 0 -17 6 -17 8 -2 8 9 1 17 6 17 11 0 6 7 10 15 10 16 0 6 15 -37 62 -10
10 -18 29 -18 43 0 14 -5 25 -11 25 -5 0 -8 4 -4 9 6 11 54 4 72 -11 17 -14
16 -31 -1 -25 -8 3 -16 0 -19 -7 -7 -17 17 -46 37 -46 9 0 21 -11 25 -24 6
-15 20 -25 40 -29 20 -4 35 -16 42 -31 12 -25 37 -41 48 -31 3 3 -2 18 -11 33
-13 22 -37 39 -96 69 -5 2 19 46 35 61 7 7 13 20 13 28 0 8 5 14 10 14 6 0 10
9 10 20 0 23 -15 27 -24 5 -3 -8 -12 -15 -21 -15 -21 0 -19 -20 3 -21 11 -1 8
-4 -8 -8 -17 -5 -28 -3 -33 6 -4 7 -19 13 -32 13 -15 0 -25 6 -25 15 0 8 -12
21 -27 29 l-28 15 25 10 25 10 -22 7 c-27 8 -28 12 -6 36 15 17 15 18 0 18
-11 0 -17 8 -17 21 0 21 1 21 43 -4 23 -14 44 -33 45 -42 3 -14 1 -14 -17 -3
-24 15 -39 4 -22 -16 7 -8 9 -25 5 -40 -4 -18 -2 -26 7 -26 8 0 24 -3 37 -6
13 -4 22 -2 22 5 0 6 -9 11 -19 11 -32 0 -32 14 0 35 16 11 29 23 29 28 0 4 7
7 15 7 9 0 12 6 9 15 -4 10 0 15 14 15 15 0 19 5 15 21 -3 11 -9 17 -12 11 -8
-11 -74 -25 -67 -13 3 5 -1 14 -8 20 -11 10 -17 8 -24 -6 -12 -20 -17 -18 -26
14 -6 18 -4 21 13 18 17 -3 21 1 21 25 0 16 -5 41 -12 57 -6 15 -10 33 -9 40
1 6 -3 15 -10 18 -12 8 -41 -19 -52 -49 -4 -10 -10 -16 -13 -14 -8 8 7 58 17
58 5 0 9 6 9 13 0 9 11 12 35 9 28 -3 35 -9 35 -26 1 -18 2 -19 10 -4 6 9 9
35 7 57 -2 23 0 41 4 41 11 0 19 -28 13 -45 -6 -15 41 -95 55 -95 4 0 12 5 18
11 16 16 43 3 43 -21 0 -28 11 -25 37 12 19 28 21 34 8 47 -19 22 -23 73 -6
79 10 3 12 -3 6 -26 -8 -37 12 -54 32 -26 12 16 15 17 23 4 13 -20 13 -40 0
-40 -5 0 -10 -4 -10 -10 0 -5 6 -7 14 -4 17 6 30 -11 20 -27 -12 -20 -15 -91
-4 -84 5 3 10 12 10 19 0 7 19 19 43 26 23 7 44 16 48 21 3 5 19 5 37 0 25 -8
32 -7 32 5 0 8 -7 14 -15 14 -9 0 -15 9 -15 21 0 26 -22 20 -35 -9 -5 -12 -15
-22 -22 -22 -6 0 -19 -3 -29 -7 -15 -6 -16 -1 -11 41 6 44 5 47 -13 41 -14 -5
-20 -2 -20 10 0 12 5 15 21 10 14 -5 19 -4 15 4 -5 7 -1 9 8 5 9 -3 16 -11 16
-16 0 -6 14 7 31 28 17 22 32 41 35 43 2 2 9 -1 16 -6 14 -12 77 -8 90 5 5 5
-12 8 -37 8 -25 1 -48 3 -51 7 -13 12 8 27 39 27 29 0 30 1 11 15 -19 14 -19
14 3 15 12 0 28 9 35 19 8 10 24 21 37 23 14 1 26 9 29 17 3 8 0 11 -6 7 -6
-3 -13 -2 -17 4 -3 5 -22 10 -41 10 -33 0 -45 12 -24 25 8 5 8 11 1 19 -11 12
-5 26 10 26 4 0 12 -13 18 -30 9 -28 31 -42 31 -20 0 5 7 7 15 4 17 -7 20 7 6
22 -9 9 -14 36 -12 62 1 10 4 10 15 0 8 -7 12 -17 9 -21 -5 -8 67 1 77 10 2 2
-2 8 -10 13 -10 6 -11 12 -3 22 15 18 18 968 3 968 -5 0 -10 5 -10 11 0 5 5 7
10 4 7 -4 10 568 10 1709 l0 1716 -3200 0 -3200 0 0 -1915z m607 1789 c-3 -3
-12 -4 -19 -1 -8 3 -5 6 6 6 11 1 17 -2 13 -5z m248 -394 c0 -9 -7 -14 -20
-12 -26 5 -29 8 -20 22 10 16 40 8 40 -10z m165 -1146 c22 -9 38 -20 35 -24
-7 -12 -88 13 -93 28 -5 16 10 15 58 -4z m238 -64 c3 -9 -2 -11 -19 -7 -13 4
-30 7 -36 7 -7 0 -13 4 -13 10 0 14 63 5 68 -10z m1152 -824 c-26 -28 -21 -56
10 -56 11 0 20 -4 20 -10 0 -5 -9 -10 -20 -10 -11 0 -20 -7 -20 -15 0 -17 -43
-31 -61 -19 -9 5 -7 11 6 21 11 7 13 13 7 13 -24 0 -11 28 30 63 48 42 62 48
28 13z m40 -26 c12 -8 11 -10 -7 -10 -12 0 -25 5 -28 10 -8 13 15 13 35 0z
m-140 -75 c0 -8 -7 -15 -15 -15 -8 0 -15 7 -15 15 0 8 7 15 15 15 8 0 15 -7
15 -15z m150 -5 c0 -5 -5 -10 -11 -10 -5 0 -7 5 -4 10 3 6 8 10 11 10 2 0 4
-4 4 -10z m-2364 -575 c16 -8 26 -15 22 -15 -5 0 -10 1 -13 3 -2 1 -10 -7 -18
-17 -14 -19 -15 -19 -26 2 -7 13 -9 27 -6 32 8 13 7 13 41 -5z m4968 -181 c-3
-65 -21 -124 -37 -124 -5 0 -5 -4 -2 -10 8 -12 -21 -111 -40 -136 -8 -10 -15
-29 -15 -41 0 -12 -4 -24 -9 -27 -4 -3 -11 -22 -14 -42 -4 -21 -20 -54 -37
-75 -16 -21 -30 -43 -30 -48 0 -6 -4 -11 -9 -11 -4 0 -12 -19 -17 -42 -7 -34
-14 -43 -38 -49 -16 -5 -33 -14 -37 -21 -6 -10 -11 -10 -20 -1 -10 10 -7 17
12 34 13 12 23 26 21 31 -1 6 2 16 9 24 6 7 8 17 5 23 -3 5 1 11 9 15 8 3 15
12 15 21 0 8 5 15 10 15 6 0 10 -5 10 -11 0 -5 5 -7 10 -4 6 3 10 21 10 40 0
19 5 46 10 61 7 18 7 31 1 37 -5 5 -6 17 -1 26 47 94 54 113 43 130 -9 14 -8
22 1 32 7 8 21 40 31 72 9 32 24 61 31 64 9 3 13 16 12 32 -2 20 1 25 15 23
11 -2 17 4 17 16 0 25 10 34 26 22 8 -7 11 -32 8 -76z m-4948 33 c9 3 14 -2
14 -16 0 -12 -6 -21 -12 -21 -29 0 -58 13 -58 25 0 16 22 25 34 15 5 -5 15 -6
22 -3z m128 -8 c-3 -5 -10 -7 -15 -3 -5 3 -7 10 -3 15 3 5 10 7 15 3 5 -3 7
-10 3 -15z m1292 -90 c3 -6 -1 -18 -10 -27 -15 -15 -16 -15 -16 1 0 9 -7 17
-15 17 -8 0 -15 5 -15 10 0 14 47 13 56 -1z m4316 -181 c-9 -9 -12 -7 -12 12
0 19 3 21 12 12 9 -9 9 -15 0 -24z m398 21 c0 -11 -24 -39 -34 -39 -10 0 -6
20 7 35 15 17 27 19 27 4z m-6070 -41 c0 -7 -7 -21 -14 -31 -11 -14 -21 -16
-45 -10 -40 10 -40 28 1 28 17 0 33 6 36 13 2 6 8 12 13 12 5 0 9 -6 9 -12z
m6140 -68 c0 -5 -5 -10 -11 -10 -5 0 -7 5 -4 10 3 6 8 10 11 10 2 0 4 -4 4
-10z m-6110 -70 c0 -5 -9 -10 -20 -10 -11 0 -20 5 -20 10 0 6 9 10 20 10 11 0
20 -4 20 -10z m5970 -21 c0 -5 -7 -9 -15 -9 -15 0 -20 12 -9 23 8 8 24 -1 24
-14z m-5980 -25 c0 -8 -4 -12 -10 -9 -5 3 -10 10 -10 16 0 5 5 9 10 9 6 0 10
-7 10 -16z m5644 -30 c3 -8 2 -12 -4 -9 -6 3 -10 10 -10 16 0 14 7 11 14 -7z
m-5627 0 c-3 -3 -12 -4 -19 -1 -8 3 -5 6 6 6 11 1 17 -2 13 -5z m6170 0 c-3
-3 -12 -4 -19 -1 -8 3 -5 6 6 6 11 1 17 -2 13 -5z m-432 -26 c13 -11 22 -25
19 -30 -8 -13 -24 -9 -24 7 0 10 -10 15 -26 15 -22 0 -25 2 -14 15 16 19 15
19 45 -7z m-5786 -2 c9 -11 8 -15 -5 -20 -23 -9 -24 -8 -24 14 0 23 13 26 29
6z m6161 4 c0 -5 -12 -10 -26 -10 -14 0 -23 4 -19 10 3 6 15 10 26 10 10 0 19
-4 19 -10z m-614 -15 c13 -13 12 -15 -11 -21 -32 -8 -59 2 -49 18 6 9 9 9 12
0 5 -17 22 -15 22 3 0 19 7 19 26 0z m144 0 c0 -9 7 -18 15 -21 19 -8 20 -30
1 -37 -8 -3 -18 5 -25 19 -14 31 -14 54 -1 54 6 0 10 -7 10 -15z m525 -14 c-3
-6 -13 -11 -21 -11 -10 0 -15 -8 -14 -22 5 -56 0 -77 -15 -71 -9 3 -14 8 -11
10 8 8 -28 40 -40 36 -19 -7 -25 14 -8 27 10 10 18 10 26 2 12 -12 38 -5 38
12 0 6 10 16 23 22 25 11 32 10 22 -5z m-255 -1 c0 -5 -4 -10 -10 -10 -5 0
-10 5 -10 10 0 6 5 10 10 10 6 0 10 -4 10 -10z m-315 -58 c0 -18 -20 -15 -23
4 -3 10 1 15 10 12 7 -3 13 -10 13 -16z m262 -14 c-3 -8 -6 -5 -6 6 -1 11 2
17 5 13 3 -3 4 -12 1 -19z m-6050 -10 c-3 -8 -6 -5 -6 6 -1 11 2 17 5 13 3 -3
4 -12 1 -19z m668 12 c3 -5 1 -10 -4 -10 -6 0 -11 5 -11 10 0 6 2 10 4 10 3 0
8 -4 11 -10z m5063 -8 c2 -7 -3 -12 -12 -12 -9 0 -16 7 -16 16 0 17 22 14 28
-4z m202 14 c0 -3 -4 -8 -10 -11 -5 -3 -10 -1 -10 4 0 6 5 11 10 11 6 0 10 -2
10 -4z m297 -33 c-9 -9 -19 -14 -23 -11 -10 10 6 28 24 28 15 0 15 -1 -1 -17z
m-6197 -3 c0 -5 -5 -10 -11 -10 -5 0 -7 5 -4 10 3 6 8 10 11 10 2 0 4 -4 4
-10z m5780 0 c0 -5 -4 -10 -10 -10 -5 0 -10 5 -10 10 0 6 5 10 10 10 6 0 10
-4 10 -10z m-30 -4 c0 -3 -4 -8 -10 -11 -5 -3 -10 -1 -10 4 0 6 5 11 10 11 6
0 10 -2 10 -4z m127 -36 c-1 -22 -17 -28 -17 -7 0 12 9 27 16 27 2 0 2 -9 1
-20z m153 -5 c0 -8 -4 -15 -10 -15 -5 0 -10 7 -10 15 0 8 5 15 10 15 6 0 10
-7 10 -15z m158 3 c-6 -18 -28 -21 -28 -4 0 9 7 16 16 16 9 0 14 -5 12 -12z
m52 2 c0 -5 -8 -10 -17 -10 -15 0 -16 2 -3 10 19 12 20 12 20 0z m66 -35 c-9
-14 -21 -23 -27 -20 -20 13 -77 -15 -83 -40 -7 -29 -36 -34 -36 -7 0 34 28 60
60 58 20 -1 43 7 62 21 38 27 47 23 24 -12z m-346 5 c0 -11 -4 -20 -10 -20 -5
0 -10 9 -10 20 0 11 5 20 10 20 6 0 10 -9 10 -20z m-5980 -20 c0 -5 -4 -10 -9
-10 -6 0 -13 5 -16 10 -3 6 1 10 9 10 9 0 16 -4 16 -10z m636 -38 c-9 -8 -57
8 -51 18 3 6 16 5 30 -2 14 -6 23 -13 21 -16z m4924 19 c0 -19 -12 -41 -20
-36 -10 6 -1 45 11 45 5 0 9 -4 9 -9z m697 -23 c-3 -8 -6 -5 -6 6 -1 11 2 17
5 13 3 -3 4 -12 1 -19z m73 4 c0 -16 -49 -54 -60 -47 -8 5 -3 15 16 31 31 25
44 29 44 16z m-6120 -28 c0 -8 -4 -14 -10 -14 -5 0 -10 9 -10 21 0 11 5 17 10
14 6 -3 10 -13 10 -21z m5875 -4 c4 -6 11 -8 16 -5 5 4 9 -1 9 -9 0 -13 -4
-14 -25 -4 -14 6 -25 15 -25 20 0 11 18 10 25 -2z m160 0 c3 -6 -1 -7 -9 -4
-18 7 -21 14 -7 14 6 0 13 -4 16 -10z m-80 -32 c6 -4 2 -8 -7 -8 -10 0 -18 7
-18 17 0 9 3 12 8 7 4 -5 12 -12 17 -16z m-6168 -20 c-3 -8 -6 -5 -6 6 -1 11
2 17 5 13 3 -3 4 -12 1 -19z m5983 2 c0 -5 -2 -10 -4 -10 -3 0 -8 5 -11 10 -3
6 -1 10 4 10 6 0 11 -4 11 -10z m-600 -10 c0 -5 -7 -10 -15 -10 -8 0 -15 5
-15 10 0 6 7 10 15 10 8 0 15 -4 15 -10z m850 -10 c0 -5 6 -10 13 -10 8 0 22
-9 32 -20 21 -23 13 -70 -12 -70 -13 0 -14 3 -5 12 15 15 16 52 1 43 -5 -4
-21 -4 -33 -1 -19 5 -22 11 -18 31 4 24 22 36 22 15z m-346 -25 c4 -13 2 -14
-14 -5 -23 13 -26 20 -6 20 8 0 16 -7 20 -15z m443 -2 c-9 -9 -19 -14 -23 -11
-10 10 6 28 24 28 15 0 15 -1 -1 -17z m-6207 -30 c0 -13 -3 -13 -15 -3 -8 7
-12 16 -9 21 8 13 24 1 24 -18z m840 -70 c13 -14 10 -15 -29 -9 -49 8 -61 13
-61 27 0 14 72 0 90 -18z m-944 -37 c10 -8 16 -17 12 -21 -8 -8 -48 13 -48 25
0 14 13 12 36 -4z m139 -35 c7 -12 -12 -24 -25 -16 -11 7 -4 25 10 25 5 0 11
-4 15 -9z m5840 -11 c4 -6 11 -8 16 -5 15 10 10 -12 -6 -25 -12 -10 -15 -10
-15 4 0 9 -4 16 -10 16 -5 0 -10 5 -10 10 0 13 17 13 25 0z m-109 -27 c-10
-10 -19 5 -10 18 6 11 8 11 12 0 2 -7 1 -15 -2 -18z m-61 -43 c-5 -15 -2 -20
11 -20 14 0 15 -3 7 -11 -15 -15 -47 15 -39 36 8 23 28 18 21 -5z m-5410 0 c3
-5 15 -10 27 -10 11 0 34 -6 51 -14 18 -8 41 -17 51 -20 14 -5 16 -10 9 -17
-8 -8 -29 -5 -75 11 -66 23 -88 36 -88 51 0 12 17 11 25 -1z m5778 3 c-7 -2
-21 -2 -30 0 -10 3 -4 5 12 5 17 0 24 -2 18 -5z m-683 -13 c0 -5 -4 -10 -10
-10 -5 0 -10 5 -10 10 0 6 5 10 10 10 6 0 10 -4 10 -10z m460 -20 c0 -5 -7 -7
-15 -4 -8 4 -15 8 -15 10 0 2 7 4 15 4 8 0 15 -4 15 -10z m-5860 -4 c0 -3 -4
-8 -10 -11 -5 -3 -10 -1 -10 4 0 6 5 11 10 11 6 0 10 -2 10 -4z m5935 -16 c4
-6 -6 -10 -22 -10 -22 0 -25 2 -13 10 19 12 27 12 35 0z m90 -9 c10 -17 -12
-21 -25 -6 -10 12 -10 15 3 15 9 0 18 -4 22 -9z m-5732 -15 c6 -15 -1 -26 -15
-26 -4 0 -8 9 -8 20 0 23 15 27 23 6z m221 -1 c47 -20 46 -28 -1 -19 -46 8
-55 13 -48 25 8 12 6 12 49 -6z m5262 -22 c-10 -10 -19 5 -10 18 6 11 8 11 12
0 2 -7 1 -15 -2 -18z m-5606 7 c0 -5 11 -10 24 -10 26 0 48 -21 28 -28 -6 -2
-8 -10 -5 -19 5 -14 1 -15 -28 -9 -38 7 -64 26 -36 26 9 0 17 5 17 11 0 7 -7
8 -17 4 -38 -16 -53 -17 -53 -5 0 7 8 19 18 26 20 16 52 18 52 4z m5489 -14
c-3 -3 -16 -2 -29 1 -22 6 -22 7 -4 14 18 6 43 -5 33 -15z m306 5 c-3 -6 -11
-8 -17 -5 -6 4 -5 9 3 15 16 10 23 4 14 -10z m-515 -6 c0 -8 -4 -15 -10 -15
-5 0 -10 7 -10 15 0 8 5 15 10 15 6 0 10 -7 10 -15z m470 1 c0 -3 -4 -8 -10
-11 -5 -3 -10 -1 -10 4 0 6 5 11 10 11 6 0 10 -2 10 -4z m-5260 -26 c0 -5 -7
-10 -15 -10 -8 0 -15 5 -15 10 0 6 7 10 15 10 8 0 15 -4 15 -10z m5251 -22
c30 -1 28 -2 -11 -7 -46 -6 -69 7 -54 31 5 8 11 6 19 -5 7 -10 27 -18 46 -19z
m-335 -26 c-4 -3 -15 4 -26 15 -25 27 -14 37 12 11 11 -11 17 -22 14 -26z m87
-1 c-9 -12 -25 20 -18 36 7 16 9 15 15 -7 4 -14 5 -27 3 -29z m48 40 c-10 -6
-12 -20 -8 -47 6 -36 -5 -64 -24 -64 -5 0 -9 11 -9 25 0 14 5 25 10 25 6 0 10
16 10 35 0 27 4 35 18 35 14 0 14 -2 3 -9z m-5341 -11 c0 -5 -2 -10 -4 -10 -3
0 -8 5 -11 10 -3 6 -1 10 4 10 6 0 11 -4 11 -10z m5150 -28 c0 -15 -2 -15 -10
-2 -13 20 -13 33 0 25 6 -3 10 -14 10 -23z m221 5 c-13 -13 -26 -3 -16 12 3 6
11 8 17 5 6 -4 6 -10 -1 -17z m-5351 -1 c0 -3 -4 -8 -10 -11 -5 -3 -10 -1 -10
4 0 6 5 11 10 11 6 0 10 -2 10 -4z m200 -6 c0 -5 -5 -10 -11 -10 -5 0 -7 5 -4
10 3 6 8 10 11 10 2 0 4 -4 4 -10z m-380 -20 c0 -5 -4 -10 -10 -10 -5 0 -10 5
-10 10 0 6 5 10 10 10 6 0 10 -4 10 -10z m37 -12 c-3 -8 -6 -5 -6 6 -1 11 2
17 5 13 3 -3 4 -12 1 -19z m-237 -14 c0 -2 -7 -4 -15 -4 -8 0 -15 4 -15 10 0
5 7 7 15 4 8 -4 15 -8 15 -10z m500 6 c0 -5 -4 -10 -10 -10 -5 0 -10 5 -10 10
0 6 5 10 10 10 6 0 10 -4 10 -10z m411 -13 c-13 -13 -26 -3 -16 12 3 6 11 8
17 5 6 -4 6 -10 -1 -17z m4519 9 c0 -8 -4 -18 -10 -21 -5 -3 -10 3 -10 14 0
12 5 21 10 21 6 0 10 -6 10 -14z m-5142 -8 c-6 -18 -28 -21 -28 -4 0 9 7 16
16 16 9 0 14 -5 12 -12z m-331 -13 c1 -5 -2 -17 -8 -25 -8 -11 -12 -12 -16 -2
-2 6 -14 12 -26 12 -20 0 -20 0 -1 15 21 16 45 16 51 0z m503 -20 c0 -19 -29
-19 -54 0 -19 14 -18 15 17 15 26 0 37 -4 37 -15z m-139 -8 c-1 -4 -1 -14 -1
-22 0 -8 -4 -15 -10 -15 -5 0 -10 12 -10 26 0 14 5 24 11 22 6 -2 10 -7 10
-11z m329 3 c0 -5 -7 -10 -15 -10 -8 0 -15 5 -15 10 0 6 7 10 15 10 8 0 15 -4
15 -10z m-140 -10 c0 -5 -5 -10 -11 -10 -5 0 -7 5 -4 10 3 6 8 10 11 10 2 0 4
-4 4 -10z m5030 1 c0 -10 -30 -24 -37 -17 -3 3 -2 9 2 15 8 13 35 15 35 2z
m-5184 -48 c-10 -10 -19 5 -10 18 6 11 8 11 12 0 2 -7 1 -15 -2 -18z m4941 7
c3 -10 2 -11 -4 -4 -4 6 -15 14 -23 17 -11 5 -9 6 4 4 11 -1 21 -9 23 -17z
m-5227 -11 c0 -5 -4 -9 -10 -9 -5 0 -10 7 -10 16 0 8 5 12 10 9 6 -3 10 -10
10 -16z m60 6 c0 -8 -4 -15 -10 -15 -5 0 -10 7 -10 15 0 8 5 15 10 15 6 0 10
-7 10 -15z m5398 3 c13 -17 -3 -58 -23 -58 -20 0 -19 16 1 24 8 3 12 11 9 17
-10 15 -45 -19 -45 -43 0 -10 -4 -18 -10 -18 -10 0 -14 14 -11 38 1 6 -3 12
-9 12 -5 0 -10 7 -10 15 0 21 16 19 25 -2 6 -16 8 -15 16 5 9 24 41 30 57 10z
m-5538 -39 c0 -9 -33 -29 -49 -29 -7 0 -7 8 0 24 8 16 17 22 30 19 10 -3 19
-9 19 -14z m5255 11 c3 -5 -1 -10 -10 -10 -9 0 -13 5 -10 10 3 6 8 10 10 10 2
0 7 -4 10 -10z m-5094 -9 c4 -1 9 -7 12 -13 3 -9 -8 -13 -37 -13 -43 1 -70 11
-62 24 4 7 29 7 87 2z m57 -8 c-2 -9 -8 -18 -15 -20 -7 -3 -9 3 -6 16 6 25 26
28 21 4z m97 -3 c0 -10 -12 -16 -32 -18 -19 -2 -33 1 -33 7 0 6 7 11 15 11 8
0 15 5 15 11 0 6 8 9 18 7 9 -2 17 -10 17 -18z m95 -20 c0 -11 -4 -20 -10 -20
-5 0 -10 2 -10 4 0 2 -3 11 -6 20 -4 11 -1 16 10 16 9 0 16 -8 16 -20z m501
-4 l34 -16 -40 4 c-39 3 -85 21 -85 33 0 8 53 -4 91 -21z m4324 -6 c3 -5 1
-10 -4 -10 -6 0 -11 5 -11 10 0 6 2 10 4 10 3 0 8 -4 11 -10z m-4682 -24 c17
6 33 -11 18 -21 -17 -10 -61 6 -61 22 0 12 3 13 14 4 7 -6 20 -9 29 -5z m473
-2 c51 -24 41 -34 -16 -16 -27 9 -50 19 -50 24 0 13 29 9 66 -8z m4374 6 c0
-5 -7 -7 -15 -4 -8 4 -15 8 -15 10 0 2 7 4 15 4 8 0 15 -4 15 -10z m-5412 -18
c-10 -2 -18 -9 -18 -15 0 -7 -4 -6 -10 3 -7 11 -5 17 8 21 9 4 22 4 27 0 6 -3
2 -7 -7 -9z m76 12 c24 -9 19 -24 -8 -24 -28 0 -43 16 -24 23 7 3 14 6 15 6 1
1 8 -2 17 -5z m71 -14 c18 -20 17 -20 -8 -20 -23 0 -27 8 -18 38 2 5 9 1 26
-18z m245 10 c8 -5 11 -12 7 -16 -4 -4 -15 0 -24 9 -18 18 -8 23 17 7z m5110
-15 c0 -8 -2 -15 -4 -15 -2 0 -6 7 -10 15 -3 8 -1 15 4 15 6 0 10 -7 10 -15z
m-4363 -17 c-3 -8 -6 -5 -6 6 -1 11 2 17 5 13 3 -3 4 -12 1 -19z m4183 -6 c0
-15 -2 -15 -10 -2 -13 20 -13 33 0 25 6 -3 10 -14 10 -23z m-5130 -20 c0 -13
-7 -17 -27 -16 -37 2 -37 2 -23 19 18 21 50 19 50 -3z m70 -6 c0 -7 -7 -19
-15 -26 -11 -9 -15 -9 -15 -1 0 7 -4 10 -9 6 -5 -3 -12 -1 -16 5 -3 5 1 10 9
10 9 0 16 5 16 10 0 6 7 10 15 10 8 0 15 -6 15 -14z m5153 -1 c-3 -9 -8 -14
-10 -11 -3 3 -2 9 2 15 9 16 15 13 8 -4z m45 -18 c2 -10 -3 -17 -12 -17 -10 0
-16 9 -16 21 0 24 23 21 28 -4z m-1138 9 c0 -2 -7 -6 -15 -10 -8 -3 -15 -1
-15 4 0 6 7 10 15 10 8 0 15 -2 15 -4z m1180 -26 c-6 -10 -15 -22 -21 -25 -7
-5 -6 -11 2 -21 9 -11 6 -18 -12 -34 -31 -25 -43 -25 -36 2 4 14 0 26 -11 34
-9 7 -14 16 -10 20 5 4 17 -1 28 -11 19 -18 20 -17 20 1 0 11 7 30 16 42 18
27 39 20 24 -8z m-5205 -2 c-2 -29 -35 -38 -35 -9 0 11 8 22 18 24 9 3 17 5
18 6 0 0 0 -9 -1 -21z m70 13 c3 -5 1 -12 -5 -16 -5 -3 -10 1 -10 9 0 18 6 21
15 7z m4965 -17 c0 -8 -4 -12 -10 -9 -5 3 -10 13 -10 21 0 8 5 12 10 9 6 -3
10 -13 10 -21z m-980 -6 c5 -13 16 -32 24 -43 10 -13 12 -25 6 -35 -7 -11 -11
-9 -19 13 -6 15 -15 27 -20 27 -14 0 -33 38 -26 50 10 17 25 11 35 -12z m815
12 c3 -5 -1 -10 -9 -10 -9 0 -16 5 -16 10 0 6 4 10 9 10 6 0 13 -4 16 -10z
m-4935 -16 c0 -9 -7 -14 -17 -12 -25 5 -28 28 -4 28 12 0 21 -6 21 -16z m4810
-14 c0 -5 -2 -10 -4 -10 -3 0 -8 5 -11 10 -3 6 -1 10 4 10 6 0 11 -4 11 -10z
m-615 -10 c3 -5 1 -10 -4 -10 -6 0 -11 5 -11 10 0 6 2 10 4 10 3 0 8 -4 11
-10z m-4350 -18 c-3 -3 -11 0 -18 7 -9 10 -8 11 6 5 10 -3 15 -9 12 -12z m115
-2 c0 -10 -31 -23 -38 -15 -8 7 19 35 29 29 5 -3 9 -9 9 -14z m780 0 c0 -5 -4
-10 -10 -10 -5 0 -10 5 -10 10 0 6 5 10 10 10 6 0 10 -4 10 -10z m4434 -15 c2
-7 -4 -21 -15 -31 -12 -11 -17 -24 -13 -36 3 -10 1 -18 -5 -18 -6 0 -11 11
-11 25 0 14 -4 25 -8 25 -5 0 -17 7 -28 16 -10 8 -14 13 -8 10 6 -3 19 0 28 7
24 17 53 18 60 2z m-5265 -9 c9 -11 20 -12 44 -5 21 6 33 6 36 -2 11 -33 81
-67 81 -39 0 6 11 10 25 10 14 0 25 -5 25 -11 0 -5 -10 -9 -22 -7 -14 2 -22
-2 -21 -9 7 -35 -70 -38 -98 -5 -8 11 -25 23 -37 26 -20 7 -22 4 -22 -26 0
-39 -11 -60 -26 -50 -18 12 -24 40 -8 46 29 11 14 27 -20 21 -44 -9 -54 8 -24
40 26 28 50 32 67 11z m326 4 c3 -5 -1 -10 -9 -10 -9 0 -16 5 -16 10 0 6 4 10
9 10 6 0 13 -4 16 -10z m4815 6 c0 -3 -4 -8 -10 -11 -5 -3 -10 -1 -10 4 0 6 5
11 10 11 6 0 10 -2 10 -4z m-4910 -26 c0 -5 -5 -10 -11 -10 -5 0 -7 5 -4 10 3
6 8 10 11 10 2 0 4 -4 4 -10z m47 -16 c-9 -9 -28 6 -21 18 4 6 10 6 17 -1 6
-6 8 -13 4 -17z m495 1 c0 -5 -5 -11 -11 -13 -6 -2 -11 4 -11 13 0 9 5 15 11
13 6 -2 11 -8 11 -13z m4328 5 c0 -5 -7 -10 -16 -10 -8 0 -12 5 -9 10 3 6 10
10 16 10 5 0 9 -4 9 -10z m-4841 -34 c8 -9 8 -16 2 -20 -6 -4 -15 3 -21 14
-12 23 2 27 19 6z m4921 -6 c0 -5 -2 -10 -4 -10 -3 0 -8 5 -11 10 -3 6 -1 10
4 10 6 0 11 -4 11 -10z m145 -36 c20 -2 45 -16 45 -26 0 -5 -9 -7 -20 -3 -10
3 -28 1 -39 -5 -31 -16 -44 15 -23 55 l16 30 6 -25 c3 -14 10 -25 15 -26z m62
31 c8 -9 13 -19 9 -22 -3 -4 -11 -2 -17 4 -6 6 -18 9 -25 6 -8 -3 -14 -1 -14
5 0 9 11 17 28 21 2 1 10 -6 19 -14z m-5086 -8 c-1 -12 -15 -9 -19 4 -3 6 1
10 8 8 6 -3 11 -8 11 -12z m4639 3 c0 -5 -4 -10 -10 -10 -5 0 -10 5 -10 10 0
6 5 10 10 10 6 0 10 -4 10 -10z m-4590 -10 c0 -5 -4 -10 -10 -10 -5 0 -10 5
-10 10 0 6 5 10 10 10 6 0 10 -4 10 -10z m-280 -10 c11 -6 12 -12 4 -20 -13
-13 -44 -2 -44 16 0 16 18 18 40 4z m155 -1 c12 -19 -5 -23 -22 -6 -16 16 -16
17 -1 17 9 0 20 -5 23 -11z m55 -16 c0 -5 -5 -15 -10 -23 -9 -13 -11 -13 -20
0 -15 22 -12 30 10 30 11 0 20 -3 20 -7z m4905 -3 c3 -5 -3 -10 -15 -10 -12 0
-18 5 -15 10 3 6 10 10 15 10 5 0 12 -4 15 -10z m70 0 c4 -6 -5 -10 -19 -10
-14 0 -26 5 -26 10 0 6 9 10 19 10 11 0 23 -4 26 -10z m-4765 -31 c0 -5 -4 -9
-10 -9 -5 0 -10 7 -10 16 0 8 5 12 10 9 6 -3 10 -10 10 -16z m-420 1 c0 -5 -2
-10 -4 -10 -3 0 -8 5 -11 10 -3 6 -1 10 4 10 6 0 11 -4 11 -10z m530 -6 c0
-14 -3 -14 -15 -4 -8 7 -15 14 -15 16 0 2 7 4 15 4 8 0 15 -7 15 -16z m456
-11 c-10 -10 -19 5 -10 18 6 11 8 11 12 0 2 -7 1 -15 -2 -18z m-836 7 c0 -5
-4 -10 -10 -10 -5 0 -10 5 -10 10 0 6 5 10 10 10 6 0 10 -4 10 -10z m4970 -10
c0 -4 -9 -6 -21 -3 -15 4 -17 8 -8 14 14 8 29 3 29 -11z m-170 -3 c0 -8 -3
-17 -7 -20 -9 -9 -34 13 -27 24 8 14 34 11 34 -4z m-113 -19 c-3 -8 -6 -5 -6
6 -1 11 2 17 5 13 3 -3 4 -12 1 -19z m475 8 c15 -11 16 -15 3 -32 -8 -10 -15
-14 -15 -8 0 7 -9 14 -20 17 -25 6 -27 37 -2 37 9 0 25 -7 34 -14z m-5302 -11
c7 -8 16 -12 21 -9 5 3 9 0 9 -6 0 -8 -7 -9 -17 -5 -10 4 -28 10 -40 12 -13 3
-23 9 -23 14 0 15 37 10 50 -6z m408 6 c8 -4 13 -12 13 -16 -1 -5 6 -10 14
-11 12 -2 13 1 6 10 -10 12 -4 13 64 7 18 -2 17 -4 -9 -26 l-29 -23 29 -4 29
-3 -33 -18 c-19 -10 -41 -16 -49 -13 -14 6 -14 9 2 26 18 20 15 24 -17 21 -9
-1 -23 8 -32 21 -25 35 -19 49 12 29z m4732 -9 c0 -5 -7 -9 -15 -9 -8 0 -15 4
-15 9 0 4 7 8 15 8 8 0 15 -4 15 -8z m-5007 -19 c3 -5 -5 -15 -17 -24 -21 -16
-22 -16 -24 7 -1 18 3 24 18 24 10 0 21 -3 23 -7z m5063 -9 c-3 -9 -6 -22 -6
-31 0 -25 -23 -8 -27 20 -3 22 0 27 18 27 15 0 19 -4 15 -16z m84 -19 c0 -16
-6 -25 -15 -25 -23 0 -18 -27 8 -34 20 -6 21 -7 5 -19 -16 -13 -16 -15 2 -33
14 -14 16 -25 9 -42 -11 -28 -29 -20 -29 14 0 20 -5 24 -30 24 -16 0 -30 4
-30 8 0 5 -8 8 -17 8 -44 -1 -123 18 -120 28 5 16 48 16 79 0 25 -13 28 -12
42 8 9 12 16 17 16 10 0 -6 7 -12 15 -12 19 0 19 7 0 26 -21 21 -3 51 32 57
16 2 29 5 31 6 1 0 2 -10 2 -24z m-180 5 c0 -5 -9 -10 -20 -10 -11 0 -20 5
-20 10 0 6 9 10 20 10 11 0 20 -4 20 -10z m-260 -10 c0 -5 -4 -10 -10 -10 -5
0 -10 5 -10 10 0 6 5 10 10 10 6 0 10 -4 10 -10z m60 -4 c0 -8 -4 -17 -9 -20
-10 -7 -23 19 -14 28 11 11 23 6 23 -8z m70 4 c0 -5 -5 -10 -11 -10 -5 0 -7 5
-4 10 3 6 8 10 11 10 2 0 4 -4 4 -10z m-4341 -22 c9 -24 3 -58 -9 -58 -4 0
-12 18 -18 40 -8 33 -7 40 4 40 8 0 18 -10 23 -22z m4159 4 c6 -18 -15 -14
-22 4 -4 10 -1 14 6 12 6 -2 14 -10 16 -16z m152 4 c0 -8 3 -21 6 -30 4 -10 1
-16 -9 -16 -18 0 -26 18 -19 43 5 20 22 23 22 3z m-4707 -2 c8 -8 -15 -44 -29
-44 -8 0 -11 28 -5 48 2 5 28 2 34 -4z m51 -36 c-10 -16 -36 -8 -30 8 3 9 6
21 6 27 0 6 6 2 14 -8 8 -11 12 -23 10 -27z m4836 32 c0 -5 -2 -10 -4 -10 -3
0 -8 5 -11 10 -3 6 -1 10 4 10 6 0 11 -4 11 -10z m-540 -16 c0 -8 -5 -12 -10
-9 -6 4 -8 11 -5 16 9 14 15 11 15 -7z m-4157 -24 c3 -13 0 -20 -9 -20 -8 0
-14 9 -14 20 0 11 4 20 9 20 5 0 11 -9 14 -20z m-269 -5 c3 -9 0 -15 -8 -15
-8 0 -16 7 -20 15 -3 9 0 15 8 15 8 0 16 -7 20 -15z m369 3 c31 -15 36 -32 7
-23 -12 4 -27 2 -33 -4 -10 -7 -13 -4 -15 15 -2 27 3 29 41 12z m291 -14 c4
-10 1 -14 -6 -12 -15 5 -23 28 -10 28 5 0 13 -7 16 -16z m3696 -6 c0 -19 -2
-20 -10 -8 -13 19 -13 30 0 30 6 0 10 -10 10 -22z m210 8 c0 -7 -7 -19 -15
-26 -12 -10 -15 -9 -15 7 0 11 3 23 7 26 11 12 23 8 23 -7z m103 0 c6 -16 -2
-28 -14 -20 -12 7 -11 34 0 34 5 0 11 -6 14 -14z m-4102 -29 c-13 -13 -26 -3
-16 12 3 6 11 8 17 5 6 -4 6 -10 -1 -17z m49 -3 c0 -8 -4 -12 -10 -9 -5 3 -10
13 -10 21 0 8 5 12 10 9 6 -3 10 -13 10 -21z m-617 -15 c3 -10 1 -22 -5 -25
-13 -8 -52 31 -44 44 9 16 44 2 49 -19z m5222 11 c0 -7 -6 -15 -12 -17 -8 -3
-13 4 -13 17 0 13 5 20 13 18 6 -3 12 -11 12 -18z m-4949 -17 c-10 -10 -19 5
-10 18 6 11 8 11 12 0 2 -7 1 -15 -2 -18z m160 12 c17 -17 49 -21 39 -5 -9 15
4 12 20 -4 12 -12 12 -15 0 -20 -9 -3 -14 -10 -13 -15 4 -13 -7 -12 -47 5 -38
16 -38 15 -29 38 8 20 12 20 30 1z m4179 -5 c3 -5 1 -10 -4 -10 -6 0 -11 5
-11 10 0 6 2 10 4 10 3 0 8 -4 11 -10z m458 -18 c26 -27 27 -42 3 -42 -16 0
-77 56 -69 64 14 13 41 5 66 -22z m-4973 8 c8 -5 11 -12 8 -16 -10 -9 -38 3
-38 16 0 12 10 13 30 0z m500 0 c0 -5 -4 -10 -9 -10 -6 0 -13 5 -16 10 -3 6 1
10 9 10 9 0 16 -4 16 -10z m4390 0 c0 -5 -10 -10 -22 -10 -19 0 -20 2 -8 10
19 13 30 13 30 0z m-96 -16 c9 -22 -3 -32 -14 -14 -12 19 -12 30 -1 30 5 0 12
-7 15 -16z m-4544 -1 c-1 -19 -19 -35 -34 -30 -21 8 -20 24 2 30 28 7 32 7 32
0z m345 -2 c3 -5 1 -12 -4 -15 -5 -3 -11 1 -15 9 -6 16 9 21 19 6z m4300 -41
c-16 -18 -45 -28 -45 -15 0 2 10 15 23 28 27 28 49 16 22 -13z m-5005 20 c0
-5 -2 -10 -4 -10 -3 0 -8 5 -11 10 -3 6 -1 10 4 10 6 0 11 -4 11 -10z m425 0
c3 -5 1 -10 -4 -10 -6 0 -11 -7 -11 -15 0 -8 -4 -15 -9 -15 -15 0 -24 19 -17
35 6 17 32 20 41 5z m4015 -6 c0 -8 -4 -12 -10 -9 -5 3 -10 10 -10 16 0 5 5 9
10 9 6 0 10 -7 10 -16z m760 -6 c0 -13 3 -34 7 -47 4 -16 3 -22 -5 -18 -5 4
-12 2 -14 -5 -2 -6 -9 -8 -16 -4 -10 6 -9 44 4 84 6 21 24 13 24 -10z m-5060
-12 c0 -8 7 -12 18 -10 24 6 70 -65 50 -77 -7 -5 -20 -6 -30 -3 -9 2 -19 0
-23 -6 -4 -6 4 -10 19 -10 35 0 56 -10 56 -27 0 -10 -7 -14 -20 -10 -23 6 -33
-5 -24 -27 4 -11 13 -14 32 -9 21 5 24 3 19 -11 -5 -11 -1 -16 13 -16 11 0 20
7 20 15 0 8 8 15 18 15 10 0 22 4 28 10 14 14 36 -4 28 -23 -3 -9 -10 -14 -15
-12 -5 3 -16 -3 -26 -15 -10 -11 -27 -20 -39 -20 -12 0 -24 -7 -28 -15 -3 -8
-2 -14 2 -13 4 1 16 -3 26 -7 15 -6 23 -3 34 13 8 12 18 22 23 22 15 0 10 -27
-6 -34 -8 -3 -15 -15 -15 -28 0 -17 -3 -19 -12 -10 -15 15 -58 16 -58 1 0 -8
-5 -8 -15 1 -13 10 -15 9 -15 -9 0 -11 5 -21 12 -21 6 0 3 -9 -7 -20 -10 -11
-26 -20 -36 -20 -10 0 -22 -7 -27 -16 -7 -12 -15 -14 -43 -6 -22 6 -33 14 -30
23 2 8 3 42 2 76 -1 34 2 70 8 81 5 10 6 24 2 31 -5 8 1 29 15 55 28 48 30 66
9 66 -18 0 -23 30 -10 68 6 17 45 15 45 -2z m4795 4 c3 -5 1 -10 -4 -10 -6 0
-11 5 -11 10 0 6 2 10 4 10 3 0 8 -4 11 -10z m-4635 -14 c0 -8 -6 -17 -12 -20
-15 -6 18 -31 42 -31 8 0 14 -7 13 -16 -2 -9 10 -20 29 -27 17 -6 29 -14 26
-18 -11 -11 -93 -8 -113 4 -11 6 -16 12 -11 12 6 0 1 7 -10 15 -15 11 -16 17
-6 23 7 5 10 16 6 25 -3 9 -4 24 0 32 7 19 36 20 36 1z m4823 8 c11 -12 -13
-44 -33 -44 -24 0 -25 8 -3 32 17 19 26 22 36 12z m-599 -10 c20 -8 21 -24 2
-24 -8 0 -16 7 -20 15 -6 17 -4 18 18 9z m126 -24 c0 -11 -2 -20 -5 -20 -2 0
-9 9 -15 20 -9 16 -8 20 5 20 8 0 15 -9 15 -20z m130 0 c0 -5 -4 -10 -10 -10
-5 0 -10 5 -10 10 0 6 5 10 10 10 6 0 10 -4 10 -10z m110 0 c0 -5 -5 -10 -11
-10 -5 0 -7 5 -4 10 3 6 8 10 11 10 2 0 4 -4 4 -10z m148 -14 c3 -12 -1 -17
-10 -14 -7 3 -15 13 -16 22 -3 12 1 17 10 14 7 -3 15 -13 16 -22z m-218 4 c0
-5 -5 -10 -11 -10 -5 0 -7 5 -4 10 3 6 8 10 11 10 2 0 4 -4 4 -10z m-4815 -10
c3 -5 -1 -10 -9 -10 -9 0 -16 5 -16 10 0 6 4 10 9 10 6 0 13 -4 16 -10z m397
-2 c-9 -9 -15 -9 -24 0 -9 9 -7 12 12 12 19 0 21 -3 12 -12z m446 4 c10 10 12
5 9 -18 -2 -16 -6 -35 -10 -41 -4 -7 -3 -14 3 -18 6 -3 13 2 16 12 17 52 25
65 40 59 9 -4 23 -1 31 6 12 10 14 5 10 -30 -2 -23 -6 -44 -8 -45 -2 -2 -16
-8 -31 -15 -34 -14 -78 2 -78 29 0 10 -4 21 -10 24 -5 3 -10 15 -10 27 0 16 3
18 13 9 10 -8 17 -7 25 1z m4262 -17 c0 -8 -9 -15 -20 -15 -11 0 -20 7 -20 15
0 8 9 15 20 15 11 0 20 -7 20 -15z m-5270 -15 c0 -5 -2 -10 -4 -10 -3 0 -8 5
-11 10 -3 6 -1 10 4 10 6 0 11 -4 11 -10z m-116 -21 c-3 -5 -10 -7 -15 -3 -5
3 -7 10 -3 15 3 5 10 7 15 3 5 -3 7 -10 3 -15z m39 -9 c-7 -25 -19 -34 -28
-20 -6 10 14 39 27 40 3 0 4 -9 1 -20z m125 9 c-2 -6 -8 -10 -13 -10 -5 0 -11
4 -13 10 -2 6 4 11 13 11 9 0 15 -5 13 -11z m186 -4 c19 -14 18 -15 -17 -15
-28 0 -35 3 -31 15 8 19 23 19 48 0z m4923 -7 c-3 -8 -6 -5 -6 6 -1 11 2 17 5
13 3 -3 4 -12 1 -19z m-4333 -30 c-10 -33 -14 -35 -30 -14 -11 16 -11 21 -1
28 24 15 39 9 31 -14z m4291 13 c3 -5 1 -12 -5 -16 -5 -3 -10 1 -10 9 0 18 6
21 15 7z m182 -11 c-30 -24 -37 -25 -37 -6 0 14 17 22 49 25 7 0 2 -8 -12 -19z
m-4429 -7 c-4 -24 -24 -27 -24 -3 0 11 6 20 14 20 7 0 12 -8 10 -17z m302 2
c0 -8 -4 -15 -10 -15 -5 0 -10 7 -10 15 0 8 5 15 10 15 6 0 10 -7 10 -15z
m4014 -10 c-6 -16 -24 -21 -24 -7 0 11 11 22 21 22 5 0 6 -7 3 -15z m-4176
-18 c2 -10 -3 -17 -12 -17 -10 0 -16 9 -16 21 0 24 23 21 28 -4z m-951 -19
c-3 -7 -5 -2 -5 12 0 14 2 19 5 13 2 -7 2 -19 0 -25z m1042 19 c6 -8 8 -17 4
-20 -12 -13 -28 -7 -41 13 -11 17 -10 20 7 20 10 0 24 -6 30 -13z m-364 -7
c-3 -5 -11 -10 -16 -10 -6 0 -7 5 -4 10 3 6 11 10 16 10 6 0 7 -4 4 -10z
m4555 -11 c0 -5 -4 -8 -9 -4 -5 3 -12 1 -16 -5 -8 -13 -25 -13 -25 -1 0 8 16
16 43 20 4 0 7 -4 7 -10z m-5575 -9 c-3 -5 -11 -10 -16 -10 -6 0 -7 5 -4 10 3
6 11 10 16 10 6 0 7 -4 4 -10z m415 -15 c0 -8 -9 -15 -20 -15 -20 0 -26 11
-13 23 12 13 33 7 33 -8z m606 1 c3 -8 4 -22 2 -32 -3 -15 -5 -14 -27 3 -14
11 -21 25 -17 31 10 17 36 15 42 -2z m4471 -8 c-3 -8 -6 -5 -6 6 -1 11 2 17 5
13 3 -3 4 -12 1 -19z m281 -3 c7 -15 8 -25 2 -25 -6 0 -10 6 -11 13 0 10 -2
10 -6 0 -2 -7 -12 -13 -20 -13 -10 0 -13 6 -9 16 3 9 6 20 6 25 0 19 27 8 38
-16z m-4639 -22 c1 -1 0 -7 -4 -13 -9 -14 -35 6 -35 27 0 13 3 13 18 2 9 -7
19 -14 21 -16z m4496 17 c-3 -5 -10 -10 -16 -10 -5 0 -9 5 -9 10 0 6 7 10 16
10 8 0 12 -4 9 -10z m-5185 -47 c0 -20 -3 -24 -11 -16 -7 7 -9 19 -6 27 10 24
17 19 17 -11z m770 17 c0 -5 -2 -10 -4 -10 -3 0 -8 5 -11 10 -3 6 -1 10 4 10
6 0 11 -4 11 -10z m-236 -53 c-5 -143 -9 -167 -28 -167 -21 0 -37 22 -25 36 7
9 7 19 -1 34 -8 16 -8 25 0 35 7 8 7 15 1 19 -6 4 -6 18 -1 35 4 16 6 32 3 35
-11 11 8 23 30 19 19 -4 22 -10 21 -46z m4420 28 c-4 -8 -10 -12 -15 -9 -11 6
-2 24 11 24 5 0 7 -7 4 -15z m91 5 c3 -5 -3 -10 -15 -10 -12 0 -18 5 -15 10 3
6 10 10 15 10 5 0 12 -4 15 -10z m65 -61 c0 -10 -33 -12 -42 -3 -3 3 -1 18 5
34 l11 28 13 -25 c7 -14 13 -29 13 -34z m-4387 20 c14 -14 16 -20 7 -17 -9 3
-24 0 -35 -8 -27 -20 -35 -17 -35 9 0 43 28 50 63 16z m4300 -11 c22 -8 27
-16 27 -45 0 -28 -2 -32 -12 -21 -7 8 -29 31 -48 53 -25 28 -30 36 -15 30 11
-4 32 -12 48 -17z m-5347 -8 c1 -27 -8 -32 -23 -13 -8 10 -12 13 -9 7 3 -7 -1
-14 -9 -18 -18 -7 -20 15 -3 32 16 16 43 11 44 -8z m1134 10 c0 -5 -2 -10 -4
-10 -3 0 -8 5 -11 10 -3 6 -1 10 4 10 6 0 11 -4 11 -10z m-1008 -10 c49 -14
56 -27 12 -22 -26 3 -34 1 -34 -12 0 -9 -4 -16 -10 -16 -5 0 -10 7 -10 15 0 8
-7 15 -15 15 -18 0 -20 16 -2 23 18 8 19 8 59 -3z m88 -17 c0 -22 -2 -25 -10
-13 -13 20 -13 40 0 40 6 0 10 -12 10 -27z m97 10 c4 -11 -26 -27 -35 -19 -2
3 -2 12 2 21 6 18 27 16 33 -2z m-47 -13 c0 -5 -4 -10 -9 -10 -6 0 -13 5 -16
10 -3 6 1 10 9 10 9 0 16 -4 16 -10z m810 -36 c0 -19 -13 -24 -28 -11 -11 9
-16 9 -19 1 -2 -7 -12 -10 -23 -7 -15 4 -17 9 -9 27 10 20 14 21 45 12 19 -6
34 -16 34 -22z m4490 15 c0 -17 -4 -20 -22 -15 -13 3 -34 6 -47 6 -31 0 -17
16 19 23 46 8 50 7 50 -14z m-5570 -24 c0 -9 -6 -12 -15 -9 -10 4 -15 0 -16
-12 0 -17 -1 -17 -8 1 -6 14 -4 22 8 27 25 10 31 9 31 -7z m70 0 c11 -13 8
-15 -13 -15 -26 0 -42 12 -30 24 11 11 30 7 43 -9z m460 11 c0 -3 -4 -8 -10
-11 -5 -3 -10 -1 -10 4 0 6 5 11 10 11 6 0 10 -2 10 -4z m40 -11 c0 -8 -7 -15
-15 -15 -16 0 -20 12 -8 23 11 12 23 8 23 -8z m4783 -4 c-5 -3 -13 -15 -18
-26 -7 -18 -8 -19 -12 -2 -7 28 4 47 22 40 9 -3 13 -9 8 -12z m-5213 -17 c0
-12 -4 -12 -20 -2 -11 7 -20 16 -20 19 0 4 9 5 20 2 11 -3 20 -12 20 -19z
m250 16 c0 -5 -6 -10 -14 -10 -8 0 -18 5 -21 10 -3 6 3 10 14 10 12 0 21 -4
21 -10z m510 -10 c0 -5 -4 -10 -10 -10 -5 0 -10 5 -10 10 0 6 5 10 10 10 6 0
10 -4 10 -10z m-657 -56 c-8 -21 -23 -17 -23 7 0 11 -4 17 -10 14 -5 -3 -10 1
-10 10 0 14 2 14 24 -1 15 -9 22 -21 19 -30z m-63 22 c0 -17 -25 -27 -46 -19
-15 6 -15 8 2 20 23 17 44 17 44 -1z m174 -1 c-7 -16 -24 -21 -24 -6 0 8 7 13
27 20 1 1 0 -6 -3 -14z m4931 -15 c-5 -8 -11 -8 -17 -2 -6 6 -7 16 -3 22 5 8
11 8 17 2 6 -6 7 -16 3 -22z m-5066 -52 c1 -5 -8 -8 -19 -8 -23 0 -24 3 -8 30
12 18 13 19 20 2 3 -9 7 -20 7 -24z m69 19 c2 -10 -4 -20 -13 -23 -21 -9 -28
0 -20 26 8 24 28 22 33 -3z m67 2 c-3 -4 -12 -6 -20 -3 -8 4 -13 10 -10 15 3
4 12 6 20 3 8 -4 13 -10 10 -15z m-323 -11 c-9 -9 -15 -9 -24 0 -9 9 -7 12 12
12 19 0 21 -3 12 -12z m5217 -20 c-1 -31 -1 -31 -8 -8 -5 14 -6 28 -4 33 9 15
13 6 12 -25z m-4904 2 c17 -7 14 -9 -13 -9 -20 -1 -31 3 -27 9 7 12 13 12 40
0z m-279 -30 c0 -14 -3 -16 -13 -8 -7 6 -13 17 -13 24 0 7 6 11 13 8 7 -2 13
-13 13 -24z m5267 24 c11 -11 -4 -33 -19 -27 -8 3 -21 0 -29 -7 -12 -10 -15
-9 -15 4 0 21 49 44 63 30z m-5163 -35 c0 -20 -15 -26 -25 -9 -9 15 3 43 15
35 5 -3 10 -15 10 -26z m539 12 c16 -10 6 -31 -14 -31 -17 0 -28 17 -20 30 8
12 16 12 34 1z m-251 -32 c-2 -6 -8 -10 -13 -10 -5 0 -11 4 -13 10 -2 6 4 11
13 11 9 0 15 -5 13 -11z m4872 -7 c0 -4 -9 -13 -21 -20 -12 -8 -18 -9 -14 -3
3 6 1 11 -4 11 -6 0 -11 5 -11 10 0 6 11 10 25 10 14 0 25 -3 25 -8z m-4925
-32 c-6 -9 -9 -9 -16 1 -10 17 0 34 13 21 6 -6 7 -16 3 -22z m-40 10 c-3 -5
-10 -10 -16 -10 -5 0 -9 5 -9 10 0 6 7 10 16 10 8 0 12 -4 9 -10z m-40 -21
c11 -17 2 -18 -25 -4 -24 14 -24 14 -3 15 12 0 25 -5 28 -11z m-183 -23 c4
-20 -16 -46 -37 -46 -9 0 -5 30 7 50 17 26 25 25 30 -4z m248 2 c0 -13 -23 -5
-28 10 -2 7 2 10 12 6 9 -3 16 -11 16 -16z m35 -8 c3 -5 -1 -10 -10 -10 -9 0
-13 5 -10 10 3 6 8 10 10 10 2 0 7 -4 10 -10z m339 -9 c17 -18 17 -19 -1 -23
-10 -2 -28 -2 -40 0 -19 4 -20 7 -10 23 15 24 29 24 51 0z m-569 -5 c26 -13
26 -15 8 -25 -22 -11 -43 2 -43 26 0 16 2 16 35 -1z m156 -19 c-1 -12 -15 -9
-19 4 -3 6 1 10 8 8 6 -3 11 -8 11 -12z m157 -8 c-2 -6 -8 -10 -13 -10 -5 0
-11 4 -13 10 -2 6 4 11 13 11 9 0 15 -5 13 -11z m-88 -19 c0 -5 -7 -10 -15
-10 -8 0 -15 5 -15 10 0 6 7 10 15 10 8 0 15 -4 15 -10z m40 -10 c0 -5 -4 -10
-10 -10 -5 0 -10 5 -10 10 0 6 5 10 10 10 6 0 10 -4 10 -10z"/>
<path d="M665 730 c4 -6 11 -8 16 -5 14 9 11 15 -7 15 -8 0 -12 -5 -9 -10z"/>
<path d="M610 570 c20 -13 40 -13 40 0 0 6 -12 10 -27 10 -22 0 -25 -2 -13
-10z"/>
<path d="M602 453 c-10 -33 -6 -66 5 -35 3 6 13 12 24 12 10 0 19 5 19 10 0 6
-5 10 -11 10 -6 0 -9 9 -6 20 10 37 -19 21 -31 -17z"/>
<path d="M1404 685 c-18 -14 -18 -14 3 -15 23 0 39 15 25 24 -5 3 -18 -1 -28
-9z"/>
<path d="M2265 3350 c3 -5 8 -10 11 -10 2 0 4 5 4 10 0 6 -5 10 -11 10 -5 0
-7 -4 -4 -10z"/>
<path d="M2495 3195 c-82 -17 -166 -57 -200 -95 -18 -20 -18 -20 8 -20 27 0
38 -22 17 -35 -18 -11 -10 -22 29 -39 29 -14 43 -15 59 -7 10 6 21 8 24 6 9
-9 78 17 78 30 0 29 54 21 73 -11 10 -18 37 -18 37 0 0 8 15 17 34 20 43 8 96
65 96 105 0 34 -8 38 -92 46 -35 3 -72 8 -83 10 -11 1 -47 -3 -80 -10z m25
-110 c7 -9 11 -16 9 -18 -52 -30 -90 -39 -57 -13 10 7 15 16 12 19 -7 7 4 27
15 27 5 0 14 -7 21 -15z m-135 -35 c3 -5 2 -10 -4 -10 -5 0 -13 5 -16 10 -3 6
-2 10 4 10 5 0 13 -4 16 -10z"/>
<path d="M3876 3201 c-30 -5 -52 -14 -58 -24 -5 -10 -13 -15 -17 -12 -5 2 -11
-10 -15 -27 -6 -29 -1 -37 40 -77 36 -34 54 -44 78 -43 37 1 126 39 126 52 0
6 13 10 29 10 20 0 30 -6 34 -19 3 -12 17 -21 41 -25 46 -9 66 2 41 21 -16 11
-17 13 -3 13 31 0 29 20 -4 51 -37 34 -102 69 -129 69 -10 0 -21 5 -24 10 -7
11 -62 11 -139 1z"/>
<path d="M2280 3041 c0 -5 5 -13 10 -16 6 -3 10 -2 10 4 0 5 -4 13 -10 16 -5
3 -10 2 -10 -4z"/>
<path d="M2538 3033 c7 -3 16 -2 19 1 4 3 -2 6 -13 5 -11 0 -14 -3 -6 -6z"/>
<path d="M0 2516 c0 -25 4 -36 15 -36 8 0 15 -6 15 -12 0 -7 9 1 19 17 19 30
16 45 -10 48 -8 2 -20 6 -26 10 -10 6 -13 -1 -13 -27z"/>
<path d="M6334 1904 c11 -8 29 -14 40 -13 19 0 18 1 -4 11 -40 18 -58 19 -36
2z"/>
<path d="M6336 1854 c-8 -21 -9 -20 33 -29 23 -5 31 -4 27 4 -4 6 -15 11 -24
11 -15 1 -15 2 2 15 19 14 19 15 -6 15 -15 0 -29 -7 -32 -16z"/>
<path d="M6292 1795 c-7 -8 -9 -15 -5 -16 15 -1 41 -7 62 -14 33 -10 25 12
-11 29 -17 9 -32 16 -32 16 -1 -1 -7 -7 -14 -15z"/>
<path d="M6310 1685 c0 -8 7 -15 15 -15 8 0 15 7 15 15 0 8 -7 15 -15 15 -8 0
-15 -7 -15 -15z"/>
<path d="M2980 1678 c0 -10 -10 -20 -25 -24 -25 -6 -25 -7 -8 -35 19 -32 33
-38 33 -14 0 9 9 15 25 15 16 0 25 -6 25 -16 0 -8 5 -12 10 -9 6 3 13 0 16 -9
18 -47 64 -1 64 64 0 28 -2 30 -32 29 -18 -1 -37 0 -43 1 -5 2 -18 0 -29 -5
-12 -5 -21 -3 -27 6 -7 11 -9 11 -9 -3z m108 -53 c1 -14 -3 -25 -8 -25 -6 0
-10 11 -10 25 0 14 4 25 8 25 4 0 9 -11 10 -25z"/>
<path d="M3140 1670 c0 -5 10 -10 23 -10 18 0 19 2 7 10 -19 13 -30 13 -30 0z"/>
<path d="M6123 1656 c-28 -13 -30 -25 -3 -23 11 1 20 7 20 13 0 7 6 15 13 17
6 3 8 5 2 5 -5 0 -20 -5 -32 -12z"/>
<path d="M6150 1630 c0 -5 5 -10 10 -10 6 0 10 5 10 10 0 6 -4 10 -10 10 -5 0
-10 -4 -10 -10z"/>
<path d="M5755 1560 c-3 -5 -1 -10 4 -10 6 0 11 5 11 10 0 6 -2 10 -4 10 -3 0
-8 -4 -11 -10z"/>
<path d="M5950 1525 c0 -8 7 -15 15 -15 8 0 15 4 15 9 0 5 -7 11 -15 15 -9 3
-15 0 -15 -9z"/>
<path d="M6340 1515 c0 -16 16 -20 24 -6 3 5 -1 11 -9 15 -9 3 -15 0 -15 -9z"/>
<path d="M5880 1496 c0 -17 24 -38 33 -29 15 15 6 43 -13 43 -11 0 -20 -6 -20
-14z"/>
<path d="M6120 1500 c0 -5 7 -10 15 -10 8 0 15 5 15 10 0 6 -7 10 -15 10 -8 0
-15 -4 -15 -10z"/>
<path d="M5772 1476 c9 -10 18 -11 31 -5 25 14 21 19 -13 19 -26 0 -29 -2 -18
-14z"/>
<path d="M6051 1474 c0 -11 3 -14 6 -6 3 7 2 16 -1 19 -3 4 -6 -2 -5 -13z"/>
<path d="M6135 1470 c-23 -6 -25 -8 -8 -9 33 -2 53 -12 53 -27 0 -8 9 -14 20
-14 11 0 20 5 20 10 0 6 -4 10 -9 10 -5 0 -8 8 -7 17 1 20 -23 25 -69 13z"/>
<path d="M6310 1469 c0 -5 9 -9 20 -9 11 0 20 4 20 8 0 4 -9 8 -20 9 -11 1
-20 -2 -20 -8z"/>
<path d="M6381 1461 c-10 -6 -10 -10 -1 -16 13 -8 24 -1 19 14 -3 6 -10 7 -18
2z"/>
<path d="M5880 1430 c-13 -8 -12 -11 4 -23 11 -8 16 -19 12 -25 -5 -8 0 -12
14 -12 17 0 19 4 14 28 -11 46 -17 50 -44 32z"/>
<path d="M6020 1416 c0 -8 5 -18 10 -21 6 -3 10 1 10 9 0 8 -4 18 -10 21 -5 3
-10 -1 -10 -9z"/>
<path d="M6080 1410 c0 -13 11 -13 30 0 12 8 11 10 -7 10 -13 0 -23 -4 -23
-10z"/>
<path d="M6267 1394 c6 -15 23 -19 23 -5 0 5 -7 11 -14 14 -10 4 -13 1 -9 -9z"/>
<path d="M5861 1357 c1 -7 4 -22 7 -34 6 -18 10 -20 23 -9 15 11 15 14 -7 33
-13 12 -24 16 -23 10z"/>
<path d="M5981 1344 c0 -11 3 -14 6 -6 3 7 2 16 -1 19 -3 4 -6 -2 -5 -13z"/>
<path d="M6110 1340 c-12 -8 -9 -10 12 -10 15 0 30 5 33 10 8 13 -25 13 -45 0z"/>
<path d="M5928 1318 c9 -9 15 -9 24 0 9 9 7 12 -12 12 -19 0 -21 -3 -12 -12z"/>
<path d="M0 1289 c0 -5 5 -7 10 -4 5 3 10 8 10 11 0 2 -4 4 -10 4 -5 0 -10 -5
-10 -11z"/>
<path d="M6180 1290 c0 -5 5 -10 11 -10 5 0 7 5 4 10 -3 6 -8 10 -11 10 -2 0
-4 -4 -4 -10z"/>
<path d="M6030 1280 c0 -5 5 -10 10 -10 6 0 10 5 10 10 0 6 -4 10 -10 10 -5 0
-10 -4 -10 -10z"/>
<path d="M5865 1270 c-7 -12 2 -30 16 -30 12 0 12 27 0 35 -5 3 -12 1 -16 -5z"/>
<path d="M5934 1255 c8 -8 18 -15 22 -15 3 0 1 7 -6 15 -7 8 -17 15 -22 15 -5
0 -3 -7 6 -15z"/>
<path d="M5980 1201 c0 -5 9 -7 20 -4 11 3 20 7 20 9 0 2 -9 4 -20 4 -11 0
-20 -4 -20 -9z"/>
<path d="M6350 1201 c0 -10 30 -24 37 -17 3 3 2 9 -2 15 -8 13 -35 15 -35 2z"/>
<path d="M5875 1190 c-3 -5 3 -10 14 -10 12 0 21 5 21 10 0 6 -6 10 -14 10 -8
0 -18 -4 -21 -10z"/>
<path d="M6210 1170 c0 -5 7 -10 16 -10 8 0 12 5 9 10 -3 6 -10 10 -16 10 -5
0 -9 -4 -9 -10z"/>
<path d="M6120 1146 c0 -22 17 -28 24 -10 9 22 8 24 -9 24 -8 0 -15 -6 -15
-14z"/>
<path d="M5980 1139 c0 -5 5 -7 10 -4 6 3 10 8 10 11 0 2 -4 4 -10 4 -5 0 -10
-5 -10 -11z"/>
<path d="M6015 1140 c3 -5 13 -10 21 -10 8 0 14 5 14 10 0 6 -9 10 -21 10 -11
0 -17 -4 -14 -10z"/>
<path d="M6185 1140 c4 -6 11 -8 16 -5 14 9 11 15 -7 15 -8 0 -12 -5 -9 -10z"/>
<path d="M5939 1104 c-15 -36 -18 -87 -5 -95 14 -11 -2 -42 -19 -35 -18 6 -20
-15 -3 -32 9 -9 8 -16 -4 -29 -8 -10 -18 -26 -21 -36 -4 -10 -11 -16 -16 -13
-5 3 -14 -1 -21 -9 -18 -22 -31 -8 -18 20 8 18 8 28 -1 39 -8 10 -9 16 -1 21
5 3 9 18 8 33 -1 15 2 37 6 50 6 19 4 22 -17 22 -29 0 -39 -17 -25 -43 5 -9 5
-23 1 -30 -13 -21 -14 -50 -3 -78 6 -15 13 -50 14 -78 1 -28 7 -50 12 -49 5 2
8 13 6 26 -2 18 2 22 22 22 14 0 28 -4 31 -10 11 -18 38 -12 31 7 -10 25 42
126 61 118 14 -5 15 2 10 47 -4 29 -7 61 -7 71 0 9 -5 17 -11 17 -7 0 -9 -10
-7 -25 4 -17 1 -25 -8 -25 -18 0 -18 44 -1 59 14 11 16 45 4 57 -3 4 -12 -6
-18 -22z"/>
<path d="M6032 1060 c1 -21 8 -35 22 -42 12 -6 26 -18 32 -26 9 -12 12 -13 19
-2 6 9 -2 22 -23 40 -18 15 -32 34 -32 43 0 9 -4 17 -9 17 -5 0 -9 -14 -9 -30z"/>
<path d="M6122 1079 c-23 -9 -26 -35 -4 -33 7 1 21 2 33 3 13 0 19 7 17 18 -4
21 -17 24 -46 12z"/>
<path d="M6314 1075 c-7 -17 4 -37 17 -30 12 8 12 45 -1 45 -6 0 -13 -7 -16
-15z"/>
<path d="M6364 1047 c-8 -22 11 -46 26 -31 7 7 5 17 -4 30 -14 18 -15 18 -22
1z"/>
<path d="M4390 1040 c0 -5 5 -10 10 -10 6 0 10 5 10 10 0 6 -4 10 -10 10 -5 0
-10 -4 -10 -10z"/>
<path d="M285 961 c-6 -10 25 -31 45 -31 15 0 3 17 -20 30 -12 6 -21 7 -25 1z"/>
<path d="M6035 951 c-3 -12 -10 -21 -14 -21 -11 0 -11 -49 0 -56 5 -3 9 6 9
20 0 14 4 26 9 26 14 0 23 32 12 43 -5 5 -12 1 -16 -12z"/>
<path d="M6120 934 c-6 -14 -15 -22 -20 -19 -6 4 -17 1 -25 -5 -25 -21 -17
-28 20 -16 24 7 38 19 44 38 13 36 -6 38 -19 2z"/>
<path d="M6335 940 c3 -5 8 -10 11 -10 2 0 4 5 4 10 0 6 -5 10 -11 10 -5 0 -7
-4 -4 -10z"/>
<path d="M6223 903 c-7 -2 -13 -11 -13 -20 0 -20 34 -12 38 10 3 17 -3 20 -25
10z"/>
<path d="M115 890 c-3 -5 -22 -7 -41 -4 -26 4 -34 2 -34 -10 0 -19 3 -19 53
-5 20 5 37 14 37 19 0 13 -7 13 -15 0z"/>
<path d="M5967 883 c-7 -16 -7 -63 2 -63 4 0 18 -9 31 -20 18 -16 21 -23 12
-32 -9 -9 -15 -9 -24 0 -16 16 -28 15 -28 -3 0 -8 -4 -15 -9 -15 -5 0 -16 -2
-23 -5 -9 -4 -19 4 -26 20 -13 27 -42 34 -42 10 0 -8 6 -15 14 -15 8 0 16 -6
18 -12 5 -14 -6 -82 -17 -110 -6 -14 -2 -18 15 -18 12 0 18 -4 15 -10 -4 -6
-14 -9 -22 -8 -9 2 -18 -3 -21 -11 -3 -10 5 -12 37 -9 29 2 41 0 41 -9 0 -7 6
-13 13 -13 14 0 51 39 39 41 -4 1 -14 2 -22 3 -19 1 -20 36 -2 55 7 7 11 19 8
26 -3 8 2 11 15 8 26 -7 24 11 -3 30 -23 16 -22 16 14 14 29 -1 38 -6 38 -19
0 -25 31 -23 37 2 6 23 14 25 30 9 7 -7 13 -7 17 -1 8 14 -28 25 -53 17 -11
-3 -23 0 -27 7 -4 6 -2 14 4 16 17 5 16 72 -1 72 -7 0 -18 -5 -24 -11 -16 -16
-33 -2 -33 26 0 24 -15 42 -23 28z m-32 -203 c0 -7 -6 -15 -12 -17 -8 -3 -13
4 -13 17 0 13 5 20 13 18 6 -3 12 -11 12 -18z"/>
<path d="M160 844 c0 -8 5 -12 10 -9 6 4 17 1 25 -5 20 -16 40 -3 24 16 -16
19 -59 18 -59 -2z"/>
<path d="M6068 853 c7 -3 16 -2 19 1 4 3 -2 6 -13 5 -11 0 -14 -3 -6 -6z"/>
<path d="M6133 824 c-29 -32 -29 -51 -2 -59 23 -8 42 6 45 32 1 10 5 26 9 36
11 27 -26 21 -52 -9z"/>
<path d="M270 831 c0 -5 13 -14 29 -19 22 -8 34 -7 48 3 23 17 11 30 -16 16
-13 -7 -22 -8 -26 -1 -8 12 -35 13 -35 1z"/>
<path d="M41 798 c-11 -29 -3 -51 16 -44 8 3 20 6 26 7 7 0 1 5 -12 10 -18 7
-21 12 -12 23 8 10 9 16 1 21 -5 3 -14 -4 -19 -17z"/>
<path d="M125 780 c-3 -5 -2 -10 4 -10 5 0 13 5 16 10 3 6 2 10 -4 10 -5 0
-13 -4 -16 -10z"/>
<path d="M6070 780 c0 -5 5 -10 11 -10 5 0 7 5 4 10 -3 6 -8 10 -11 10 -2 0
-4 -4 -4 -10z"/>
<path d="M4365 771 c3 -5 1 -12 -5 -16 -17 -10 -11 -25 10 -25 11 0 20 4 20 9
0 18 -12 41 -22 41 -5 0 -7 -4 -3 -9z"/>
<path d="M6245 743 c6 -26 6 -27 -12 -10 -12 10 -34 16 -56 15 -24 -1 -33 -4
-25 -9 7 -5 21 -6 31 -3 12 4 17 0 17 -16 0 -18 5 -21 33 -18 23 2 31 8 29 19
-1 10 6 19 19 22 28 7 15 27 -18 27 -22 0 -24 -3 -18 -27z"/>
<path d="M6358 749 c-20 -21 -23 -35 -9 -43 19 -12 41 7 41 35 0 33 -8 35 -32
8z"/>
<path d="M125 740 c-3 -5 -1 -10 4 -10 6 0 11 5 11 10 0 6 -2 10 -4 10 -3 0
-8 -4 -11 -10z"/>
<path d="M405 741 c-6 -11 9 -23 19 -14 9 9 7 23 -3 23 -6 0 -12 -4 -16 -9z"/>
<path d="M80 720 c0 -5 5 -12 10 -15 6 -3 8 -17 6 -31 -3 -15 0 -24 8 -24 10
0 14 30 7 61 -2 11 -31 19 -31 9z"/>
<path d="M5840 710 c0 -5 5 -10 10 -10 6 0 10 5 10 10 0 6 -4 10 -10 10 -5 0
-10 -4 -10 -10z"/>
<path d="M4370 695 c6 -8 9 -23 6 -35 -3 -11 -9 -29 -12 -40 -3 -13 -1 -20 9
-20 14 0 27 40 27 86 0 18 -6 24 -21 24 -18 0 -19 -3 -9 -15z"/>
<path d="M6104 696 c-4 -10 -2 -22 4 -28 8 -8 13 -7 18 6 4 10 2 22 -4 28 -8
8 -13 7 -18 -6z"/>
<path d="M6375 690 c-7 -12 2 -30 16 -30 5 0 9 9 9 20 0 21 -15 27 -25 10z"/>
<path d="M2185 680 c3 -5 8 -10 11 -10 2 0 4 5 4 10 0 6 -5 10 -11 10 -5 0 -7
-4 -4 -10z"/>
<path d="M148 673 c7 -3 16 -2 19 1 4 3 -2 6 -13 5 -11 0 -14 -3 -6 -6z"/>
<path d="M6040 670 c0 -5 5 -10 10 -10 6 0 10 5 10 10 0 6 -4 10 -10 10 -5 0
-10 -4 -10 -10z"/>
<path d="M6185 633 c2 -31 21 -55 41 -51 17 3 16 6 -12 36 -24 26 -30 30 -29
15z"/>
<path d="M2177 623 c-14 -13 -6 -33 13 -33 11 0 20 4 20 9 0 13 -26 32 -33 24z"/>
<path d="M6070 616 c0 -9 5 -16 10 -16 6 0 10 4 10 9 0 6 -4 13 -10 16 -5 3
-10 -1 -10 -9z"/>
<path d="M157 601 c2 -8 -1 -17 -6 -21 -11 -6 -4 -50 8 -50 7 0 41 53 41 64 0
3 -9 6 -19 6 -11 0 -21 3 -24 8 -2 4 -2 1 0 -7z"/>
<path d="M6025 610 c3 -5 8 -10 11 -10 2 0 4 5 4 10 0 6 -5 10 -11 10 -5 0 -7
-4 -4 -10z"/>
<path d="M1510 550 c0 -5 5 -10 10 -10 6 0 10 5 10 10 0 6 -4 10 -10 10 -5 0
-10 -4 -10 -10z"/>
<path d="M6210 539 c0 -11 5 -17 10 -14 6 3 10 13 10 21 0 8 -4 14 -10 14 -5
0 -10 -9 -10 -21z"/>
<path d="M4379 545 c-1 -3 -2 -8 -3 -12 -1 -5 -5 -14 -10 -21 -4 -7 -5 -19 -2
-27 2 -7 -2 -19 -10 -26 -8 -6 -12 -19 -9 -29 3 -9 -1 -34 -8 -56 -13 -37 -13
-48 0 -84 12 -33 9 -50 -9 -50 -10 0 -18 -3 -19 -7 0 -5 -2 -17 -5 -28 -5 -26
15 -75 31 -75 7 0 15 -12 19 -27 3 -16 8 -38 12 -50 5 -17 2 -23 -10 -23 -9 0
-16 -7 -16 -15 0 -9 9 -15 25 -15 15 0 25 6 25 14 0 8 11 23 25 34 25 20 34
52 14 52 -5 0 -7 5 -4 10 3 6 17 10 30 10 21 0 23 3 18 42 -3 24 -10 51 -15
60 -7 15 -1 22 37 40 35 17 42 24 30 31 -9 4 -13 12 -10 17 3 4 -6 11 -20 14
-19 5 -25 13 -25 32 0 21 3 24 13 15 8 -6 17 -8 20 -4 4 3 7 -1 7 -11 0 -13 6
-15 28 -10 15 4 30 9 35 11 13 7 7 23 -9 23 -8 0 -25 5 -37 12 -12 6 -37 11
-55 9 -35 -3 -50 16 -34 45 6 11 3 28 -12 55 -18 34 -44 57 -47 44z"/>
<path d="M5910 521 c0 -17 4 -33 10 -36 5 -3 9 9 8 30 -2 42 -18 48 -18 6z"/>
<path d="M5950 525 c-11 -13 -8 -13 21 -3 44 15 48 18 17 18 -14 0 -31 -7 -38
-15z"/>
<path d="M4540 516 c0 -8 5 -18 10 -21 6 -3 10 -2 10 4 0 6 7 8 15 5 11 -5 13
-2 9 10 -8 20 -44 21 -44 2z"/>
<path d="M6025 488 c-15 -21 -17 -22 -26 -6 -8 15 -13 16 -29 6 -18 -11 -18
-13 -2 -28 19 -18 62 -15 62 5 0 7 7 15 15 19 8 3 15 10 15 16 0 17 -18 11
-35 -12z"/>
<path d="M45 480 c4 -6 11 -8 16 -5 14 9 11 15 -7 15 -8 0 -12 -5 -9 -10z"/>
<path d="M1594 479 c-3 -6 -1 -16 5 -22 8 -8 11 -5 11 11 0 24 -5 28 -16 11z"/>
<path d="M4580 480 c0 -5 5 -10 11 -10 5 0 7 5 4 10 -3 6 -8 10 -11 10 -2 0
-4 -4 -4 -10z"/>
<path d="M6104 479 c-3 -6 -1 -16 5 -22 8 -8 11 -5 11 11 0 24 -5 28 -16 11z"/>
<path d="M0 451 c0 -25 6 -27 13 -6 4 8 2 17 -3 20 -6 4 -10 -3 -10 -14z"/>
<path d="M6207 453 c-12 -11 -8 -23 8 -23 8 0 15 7 15 15 0 16 -12 20 -23 8z"/>
<path d="M1626 441 c-3 -5 1 -11 9 -15 9 -3 15 0 15 9 0 16 -16 20 -24 6z"/>
<path d="M5836 421 c-10 -11 -16 -28 -13 -38 4 -14 5 -14 6 5 1 12 7 22 16 22
8 0 15 7 15 15 0 20 -3 19 -24 -4z"/>
<path d="M4556 407 c3 -10 9 -15 12 -12 3 3 0 11 -7 18 -10 9 -11 8 -5 -6z"/>
<path d="M5896 365 c4 -8 8 -15 10 -15 2 0 4 7 4 15 0 8 -4 15 -10 15 -5 0 -7
-7 -4 -15z"/>
<path d="M5758 353 c5 -10 7 -23 5 -30 -2 -6 4 -14 14 -17 22 -7 46 -57 37
-80 -3 -9 -1 -16 4 -16 13 0 19 23 20 78 1 40 -1 42 -28 42 -16 0 -32 5 -35
10 -3 6 -1 10 4 10 6 0 11 5 11 10 0 6 -9 10 -20 10 -16 0 -19 -4 -12 -17z"/>
<path d="M1435 340 c3 -5 8 -10 11 -10 2 0 4 5 4 10 0 6 -5 10 -11 10 -5 0 -7
-4 -4 -10z"/>
<path d="M1260 330 c-8 -5 -11 -12 -7 -16 4 -4 13 -2 19 4 15 15 7 24 -12 12z"/>
<path d="M6236 332 c-3 -6 -1 -14 5 -17 14 -9 20 -2 10 14 -6 8 -11 9 -15 3z"/>
<path d="M5897 285 c-8 -20 -4 -29 11 -24 5 2 6 13 2 23 -6 19 -7 19 -13 1z"/>
<path d="M4572 253 c2 -10 10 -18 18 -18 8 0 16 8 18 18 2 12 -3 17 -18 17
-15 0 -20 -5 -18 -17z"/>
<path d="M6240 249 c0 -5 5 -7 10 -4 6 3 10 8 10 11 0 2 -4 4 -10 4 -5 0 -10
-5 -10 -11z"/>
<path d="M5980 238 c0 -18 18 -34 28 -24 3 4 -2 14 -11 23 -16 16 -17 16 -17
1z"/>
<path d="M30 209 c0 -5 5 -7 10 -4 6 3 10 8 10 11 0 2 -4 4 -10 4 -5 0 -10 -5
-10 -11z"/>
<path d="M5595 190 c-8 -13 4 -32 16 -25 12 8 12 35 0 35 -6 0 -13 -4 -16 -10z"/>
<path d="M5850 179 c0 -11 5 -17 10 -14 6 3 10 13 10 21 0 8 -4 14 -10 14 -5
0 -10 -9 -10 -21z"/>
<path d="M32 173 c-8 -15 -7 -22 8 -31 24 -15 30 -4 14 27 -12 22 -12 23 -22
4z"/>
<path d="M5646 183 c-3 -3 -1 -14 5 -24 8 -16 6 -19 -17 -19 -36 0 -55 -27
-41 -57 10 -23 37 -32 37 -13 0 6 11 20 25 32 17 15 24 30 23 50 -2 26 -19 43
-32 31z"/>
<path d="M6140 180 c0 -5 5 -10 11 -10 5 0 7 5 4 10 -3 6 -8 10 -11 10 -2 0
-4 -4 -4 -10z"/>
<path d="M6006 173 c-12 -12 -6 -33 9 -33 8 0 15 6 15 14 0 17 -14 28 -24 19z"/>
<path d="M6300 169 c0 -5 5 -7 10 -4 6 3 10 8 10 11 0 2 -4 4 -10 4 -5 0 -10
-5 -10 -11z"/>
<path d="M6080 124 c0 -8 5 -12 10 -9 6 3 10 10 10 16 0 5 -4 9 -10 9 -5 0
-10 -7 -10 -16z"/>
<path d="M5492 91 c-12 -33 -7 -41 21 -41 11 0 26 -8 33 -17 9 -13 13 -14 14
-4 0 7 6 11 15 8 19 -8 31 11 16 26 -9 9 -14 8 -20 -2 -12 -19 -45 -6 -37 15
6 16 -9 44 -24 44 -5 0 -13 -13 -18 -29z"/>
<path d="M5740 74 c0 -9 7 -14 17 -12 25 5 28 28 4 28 -12 0 -21 -6 -21 -16z"/>
<path d="M5707 40 c10 -12 21 -16 26 -11 13 13 -1 31 -23 31 -19 0 -19 -1 -3
-20z"/>
<path d="M6065 50 c3 -5 10 -10 16 -10 5 0 9 5 9 10 0 6 -7 10 -16 10 -8 0
-12 -4 -9 -10z"/>
<path d="M5660 20 c0 -11 5 -20 10 -20 6 0 10 9 10 20 0 11 -4 20 -10 20 -5 0
-10 -9 -10 -20z"/>
</g>
</svg>
